<svg width="24" height="24" viewBox="0 0 24 24" fill="none" xmlns="http://www.w3.org/2000/svg">
<g clip-path="url(#clip0_12_2731)">
<path d="M12 1.82812C5.38312 1.82812 0 5.7757 0 10.6282V12.6281C0 15.8106 2.32837 18.7262 6.08679 20.283C6.37958 21.4169 7.39362 22.216 8.56458 22.2352C9.73572 22.2545 10.7756 21.4893 11.1053 20.3654C11.4351 19.2415 10.9737 18.0357 9.97797 17.4192C8.98206 16.8025 7.69702 16.9268 6.83807 17.723C3.55792 16.5042 1.34875 14.2429 0.89209 11.627C1.59119 7.6322 6.34882 4.62817 12 4.62817C17.6512 4.62817 22.4075 7.63092 23.1085 11.6281C22.6523 14.2434 20.4415 16.5037 17.1619 17.723C16.3037 16.9286 15.0207 16.8052 14.0266 17.4212C13.0325 18.0374 12.572 19.2413 12.9014 20.3633C13.2307 21.4856 14.2687 22.2497 15.438 22.231C16.6073 22.2122 17.6201 21.4151 17.9132 20.283C21.6716 18.7262 24 15.8106 24 12.6281V10.6282C24 5.7757 18.6169 1.82812 12 1.82812ZM10.4 19.6282C10.4 20.6223 9.59418 21.4281 8.59991 21.4281C7.60583 21.4281 6.79999 20.6223 6.79999 19.6282C6.79999 18.6341 7.60583 17.8281 8.59991 17.8281C9.59363 17.8292 10.3989 18.6345 10.4 19.6282ZM6.32007 18.3801C6.15033 18.689 6.04578 19.0292 6.01245 19.3801C3.40283 18.2001 1.60913 16.3121 1.01605 14.1817C2.07715 15.9597 3.92395 17.4401 6.32007 18.3801ZM12 3.82819C7.13159 3.82819 2.8764 5.96814 1.01038 9.08807C2.01837 5.41132 6.55994 2.62811 12 2.62811C17.4401 2.62811 21.9833 5.4126 22.99 9.09009C21.124 5.96814 16.8688 3.82819 12 3.82819ZM15.4001 21.4281C14.4058 21.4281 13.6 20.6223 13.6 19.6282C13.6 18.6341 14.4058 17.8281 15.4001 17.8281C16.3942 17.8281 17.2 18.6341 17.2 19.6282C17.1989 20.6217 16.3936 21.427 15.4001 21.4281ZM17.9875 19.3817C17.9542 19.0309 17.8497 18.6907 17.6799 18.3818C20.076 17.4417 21.9225 15.9617 22.9836 14.185C22.3903 16.3129 20.5964 18.2001 17.9875 19.3817Z" fill="currentColor"/>
<path d="M8.59979 20.6281C8.8208 20.6281 8.99988 20.449 8.99988 20.2282C8.99988 20.0072 8.8208 19.8281 8.59979 19.8281C8.48938 19.8281 8.39984 19.7386 8.39984 19.6282C8.39984 19.4072 8.22076 19.2281 7.99994 19.2281C7.77893 19.2281 7.59985 19.4072 7.59985 19.6282C7.59985 20.1804 8.04755 20.6281 8.59979 20.6281Z" fill="currentColor"/>
<path d="M15.4 19.8281C15.2894 19.8281 15.1999 19.7386 15.1999 19.6282C15.1999 19.4072 15.0208 19.2281 14.8 19.2281C14.579 19.2281 14.3999 19.4072 14.3999 19.6282C14.3999 20.1804 14.8476 20.6281 15.4 20.6281C15.6208 20.6281 15.7999 20.449 15.7999 20.2282C15.7999 20.0072 15.6208 19.8281 15.4 19.8281Z" fill="currentColor"/>
</g>
<defs>
<clipPath id="clip0_12_2731">
<rect width="24" height="24" fill="white"/>
</clipPath>
</defs>
</svg>
