<svg width="19" height="19" viewBox="0 0 19 19" fill="none" xmlns="http://www.w3.org/2000/svg">
<mask id="mask0_12_2906" style="mask-type:luminance" maskUnits="userSpaceOnUse" x="0" y="0" width="19" height="19">
<path d="M0 1.90735e-06H19V19H0V1.90735e-06Z" fill="white"/>
</mask>
<g mask="url(#mask0_12_2906)">
<path d="M5.0498 3.25334C5.35911 2.82773 5.61836 2.36271 5.81923 1.86641L6.22985 0.852138C6.368 0.510694 6.69954 0.287259 7.06789 0.287259H11.9148C12.2832 0.287259 12.6147 0.510694 12.7529 0.852138L13.1634 1.86641C13.3663 2.36761 13.6287 2.83697 13.9421 3.26599" stroke="currentColor" stroke-width="0.7" stroke-miterlimit="10" stroke-linecap="round" stroke-linejoin="round"/>
<path d="M14.49 13.0067C14.9231 12.5292 15.3153 12.0156 15.6612 11.4711" stroke="currentColor" stroke-width="0.7" stroke-miterlimit="10" stroke-linecap="round" stroke-linejoin="round"/>
<path d="M4.53125 13.0492C5.70424 14.3294 7.176 15.3452 8.85891 15.9835C9.26641 16.138 9.71636 16.138 10.1238 15.9835C11.4393 15.4845 12.6259 14.755 13.6416 13.8488" stroke="currentColor" stroke-width="0.7" stroke-miterlimit="10" stroke-linecap="round" stroke-linejoin="round"/>
<path d="M3.72228 4.61012C3.2471 4.97153 2.72033 5.26922 2.15404 5.49113L1.98616 5.55693C1.7085 5.66573 1.53988 5.94884 1.57651 6.24479L1.64449 6.79504C1.88774 8.76344 2.63691 10.5916 3.77346 12.1295" stroke="currentColor" stroke-width="0.7" stroke-miterlimit="10" stroke-linecap="round" stroke-linejoin="round"/>
<path d="M15.2205 4.57954C15.7059 4.95475 16.2464 5.26299 16.8285 5.4911L16.9964 5.55689C17.274 5.6657 17.4426 5.9488 17.4061 6.24479L17.338 6.79501C17.1989 7.9208 16.8944 9.00072 16.4466 10.0067" stroke="currentColor" stroke-width="0.7" stroke-miterlimit="10" stroke-linecap="round" stroke-linejoin="round"/>
<path d="M10.9995 7.39918C10.9995 8.23206 10.3243 8.90723 9.49141 8.90723C8.65857 8.90723 7.9834 8.23206 7.9834 7.39918C7.9834 6.56633 8.65857 5.89113 9.49141 5.89113C10.3243 5.89113 10.9995 6.56633 10.9995 7.39918Z" stroke="currentColor" stroke-width="0.7" stroke-miterlimit="10" stroke-linecap="round" stroke-linejoin="round"/>
<path d="M10.9979 7.34252C11.1893 7.50591 11.4375 7.60474 11.7088 7.60474C12.314 7.60474 12.8046 7.11419 12.8046 6.50901C12.8046 5.90383 12.314 5.41324 11.7088 5.41324C11.1412 5.41324 10.6743 5.84494 10.6187 6.39787" stroke="currentColor" stroke-width="0.7" stroke-miterlimit="10" stroke-linecap="round" stroke-linejoin="round"/>
<path d="M12.7359 6.12687C12.8513 6.17515 12.9779 6.2019 13.1108 6.2019C13.6472 6.2019 14.0821 5.76702 14.0821 5.23057C14.0821 4.69411 13.6472 4.25923 13.1108 4.25923C12.5743 4.25923 12.1394 4.69411 12.1394 5.23057C12.1394 5.33184 12.155 5.42951 12.1837 5.52128" stroke="currentColor" stroke-width="0.7" stroke-miterlimit="10" stroke-linecap="round" stroke-linejoin="round"/>
<path d="M13.9372 4.72024C14.0777 4.84612 14.2627 4.92334 14.4663 4.92334C14.9049 4.92334 15.2604 4.56779 15.2604 4.1292C15.2604 3.6906 14.9049 3.33506 14.4663 3.33506C14.0277 3.33506 13.6721 3.6906 13.6721 4.1292C13.6721 4.274 13.7115 4.40934 13.7792 4.5262" stroke="currentColor" stroke-width="0.7" stroke-miterlimit="10" stroke-linecap="round" stroke-linejoin="round"/>
<path d="M7.98461 7.34252C7.79324 7.50591 7.54509 7.60474 7.27374 7.60474C6.66856 7.60474 6.17798 7.11419 6.17798 6.50901C6.17798 5.90383 6.66856 5.41324 7.27374 5.41324C7.84141 5.41324 8.3082 5.84494 8.36391 6.39787" stroke="currentColor" stroke-width="0.7" stroke-miterlimit="10" stroke-linecap="round" stroke-linejoin="round"/>
<path d="M6.24678 6.12687C6.13144 6.17515 6.00482 6.2019 5.87194 6.2019C5.33548 6.2019 4.90063 5.76702 4.90063 5.23057C4.90063 4.69411 5.33548 4.25923 5.87194 4.25923C6.40839 4.25923 6.84327 4.69411 6.84327 5.23057C6.84327 5.33184 6.82776 5.42951 6.799 5.52128" stroke="currentColor" stroke-width="0.7" stroke-miterlimit="10" stroke-linecap="round" stroke-linejoin="round"/>
<path d="M5.04538 4.72024C4.90484 4.84612 4.71982 4.92334 4.51627 4.92334C4.07771 4.92334 3.72217 4.56779 3.72217 4.1292C3.72217 3.6906 4.07771 3.33506 4.51627 3.33506C4.9549 3.33506 5.31045 3.6906 5.31045 4.1292C5.31045 4.274 5.27104 4.40934 5.20335 4.5262" stroke="currentColor" stroke-width="0.7" stroke-miterlimit="10" stroke-linecap="round" stroke-linejoin="round"/>
<path d="M9.02351 10.3686L8.12324 11.4576C7.93776 11.682 7.93776 12.0065 8.12324 12.2308L9.02351 13.3199C9.2662 13.6134 9.71619 13.6134 9.95885 13.3199L10.8592 12.2308C11.0446 12.0065 11.0446 11.682 10.8592 11.4576L9.95885 10.3686C9.71619 10.075 9.2662 10.075 9.02351 10.3686Z" stroke="currentColor" stroke-width="0.7" stroke-miterlimit="10" stroke-linecap="round" stroke-linejoin="round"/>
<path d="M8.77344 8.72563V9.43048C8.77344 9.827 9.09488 10.1484 9.49139 10.1484C9.88791 10.1484 10.2093 9.827 10.2093 9.43048V8.72563" stroke="currentColor" stroke-width="0.7" stroke-miterlimit="10" stroke-linecap="round" stroke-linejoin="round"/>
<path d="M15.8948 9.79963C15.7067 10.1328 15.4406 10.3994 15.0961 10.5993C14.9634 10.6763 14.968 10.8671 15.1045 10.9371C15.4662 11.1227 15.7383 11.3876 15.9143 11.738C15.9823 11.8735 16.1715 11.881 16.25 11.7513C16.4609 11.4028 16.7229 11.1333 17.0389 10.9472C17.1662 10.8722 17.159 10.688 17.0304 10.6153C16.696 10.4262 16.4303 10.1522 16.2293 9.79774C16.1552 9.66707 15.9687 9.66882 15.8948 9.79963Z" stroke="currentColor" stroke-width="0.7" stroke-miterlimit="10" stroke-linecap="round" stroke-linejoin="round"/>
<path d="M4.52876 8.14746C4.38185 8.40764 4.17404 8.61589 3.90496 8.77198C3.80131 8.83213 3.80491 8.98116 3.91152 9.03582C4.194 9.18074 4.40653 9.38766 4.54394 9.6613C4.59712 9.7671 4.74482 9.77296 4.80616 9.67166C4.97085 9.39953 5.17551 9.18905 5.42225 9.04365C5.5217 8.98509 5.51606 8.84122 5.4156 8.78444C5.15447 8.63682 4.94695 8.42278 4.78998 8.14598C4.73209 8.04393 4.58643 8.04534 4.52876 8.14746Z" stroke="currentColor" stroke-width="0.7" stroke-miterlimit="10" stroke-linecap="round" stroke-linejoin="round"/>
<path d="M7.51259 15.3696H6.09442C5.557 15.3696 5.12134 15.8053 5.12134 16.3427V17.1747" stroke="currentColor" stroke-width="0.7" stroke-miterlimit="10" stroke-linecap="round" stroke-linejoin="round"/>
<path d="M11.5071 15.3696H12.9253C13.4627 15.3696 13.8983 15.8053 13.8983 16.3427V17.1747" stroke="currentColor" stroke-width="0.7" stroke-miterlimit="10" stroke-linecap="round" stroke-linejoin="round"/>
<path d="M15.831 18.7126V17.8132C15.831 17.4605 15.5451 17.1746 15.1924 17.1746H12.1003" stroke="currentColor" stroke-width="0.7" stroke-miterlimit="10" stroke-linecap="round" stroke-linejoin="round"/>
<path d="M10.914 17.1746H3.79023C3.43754 17.1746 3.15161 17.4606 3.15161 17.8132V18.7126" stroke="currentColor" stroke-width="0.7" stroke-miterlimit="10" stroke-linecap="round" stroke-linejoin="round"/>
<path d="M2.57495 18.7126H16.3903" stroke="currentColor" stroke-width="0.7" stroke-miterlimit="10" stroke-linecap="round" stroke-linejoin="round"/>
</g>
</svg>
