<svg width="19" height="19" viewBox="0 0 19 19" fill="none"  xmlns="http://www.w3.org/2000/svg">
<g clip-path="url(#clip0_12_2959)">
<path d="M18.9921 6.7614C18.9783 6.68655 18.9437 6.61645 18.8948 6.55815L15.9417 3.10141C15.8621 3.00871 15.7569 2.93947 15.6406 2.90239L12.7527 1.99551C12.6437 1.96137 12.5304 1.94408 12.4164 1.94397H6.54242C6.42816 1.94397 6.31453 1.96137 6.20536 1.99574L3.31643 2.90492C3.19861 2.94258 3.09277 3.01205 3.01295 3.10716L2.25469 4.00692C2.15876 4.12077 2.17327 4.29088 2.28713 4.38681C2.40101 4.48281 2.57109 4.46826 2.66705 4.35437L3.38501 3.50241L6.06085 4.33604L4.36455 8.31806L0.643106 6.75613L1.84838 5.3259C1.94431 5.21204 1.9298 5.04193 1.81595 4.94597C1.70206 4.85004 1.53199 4.86455 1.43602 4.9784L0.103388 6.55986C-0.0394094 6.72926 -0.0336574 6.97971 0.116747 7.14244L9.13414 16.8948C9.31119 17.1204 9.67148 17.105 9.83926 16.8762L18.8826 7.14373C18.9811 7.03775 19.0176 6.89503 18.9921 6.7614ZM13.313 10.514C13.185 10.438 13.0195 10.4801 12.9435 10.6081L9.48085 16.4356L4.98312 8.94005H8.49089L8.44038 8.95367C8.28923 8.99438 8.1877 9.1269 8.1877 9.28342C8.1877 9.43995 8.28927 9.57247 8.44038 9.61318L8.97776 9.75783C9.88616 10.0024 10.6024 10.7186 10.8469 11.627L10.9916 12.1643C11.0322 12.3155 11.1648 12.417 11.3213 12.4171H11.3214C11.4778 12.4171 11.6104 12.3156 11.6512 12.1643L11.7958 11.627C12.0404 10.7186 12.7566 10.0024 13.665 9.75783L14.2024 9.61318C14.3535 9.57247 14.455 9.43995 14.455 9.28342C14.455 9.23941 14.4468 9.19744 14.4318 9.15874L14.5942 8.88558L17.7256 7.59677L11.1641 14.6583L13.407 10.8835C13.4831 10.7555 13.4409 10.5901 13.313 10.514ZM4.32098 8.88457L7.75772 14.612L1.28306 7.60949L4.32098 8.88457ZM15.5742 3.5013L18.3539 6.75505L14.554 8.31891L12.8956 4.33663L15.5742 3.5013ZM13.3691 9.28339C12.4014 9.59808 11.636 10.3635 11.3213 11.3312C11.0067 10.3635 10.2412 9.59808 9.27356 9.28339C9.55062 9.19329 9.81098 9.06608 10.0491 8.90792C10.6425 8.51367 11.0967 7.92611 11.3213 7.23566C11.636 8.20328 12.4014 8.96874 13.3691 9.28339ZM6.36726 2.51004C6.424 2.49219 6.4829 2.48313 6.54242 2.48313H12.4164C12.4758 2.48313 12.5345 2.49215 12.5912 2.50992L14.432 3.08798L14.759 3.19066L12.492 3.8977H10.653C10.504 3.8977 10.3834 4.01842 10.3834 4.1673C10.3834 4.31619 10.504 4.4369 10.653 4.4369H12.3533L14.004 8.40078H12.8076C12.3199 8.04917 11.9563 7.53583 11.7958 6.93978L11.6511 6.40233C11.6104 6.25122 11.4779 6.14972 11.3214 6.14972C11.3213 6.14972 11.3213 6.14972 11.3213 6.14972C11.1648 6.14976 11.0322 6.25133 10.9916 6.40244L10.8469 6.93978C10.6865 7.53583 10.3229 8.04917 9.83517 8.40078H4.91543L6.60402 4.4369H7.71827C7.65704 4.46763 7.59236 4.49257 7.52493 4.51071L7.28535 4.57525C7.15391 4.61061 7.0621 4.73036 7.06206 4.86648C7.06203 5.0026 7.1538 5.12239 7.28535 5.15786L7.52493 5.22236C7.87884 5.31762 8.15783 5.59665 8.25309 5.95056L8.31766 6.19028C8.3531 6.32165 8.47285 6.41339 8.60893 6.41339C8.74501 6.41339 8.8648 6.32165 8.90024 6.19017L8.96477 5.95052C9.06003 5.59665 9.33902 5.31762 9.6929 5.22236L9.93266 5.15783C10.0641 5.12239 10.1558 5.00256 10.1558 4.86648C10.1558 4.7304 10.064 4.61065 9.93255 4.57525L9.69293 4.51071C9.33902 4.41545 9.06003 4.13643 8.96477 3.78255L8.9002 3.54283C8.86476 3.41146 8.74501 3.31973 8.60893 3.31973C8.47285 3.31973 8.3531 3.41146 8.31762 3.54294L8.25309 3.78259C8.24248 3.822 8.22923 3.8603 8.21424 3.8977H6.46687L4.201 3.19181L6.36726 2.51004ZM8.60889 4.31348C8.74379 4.54103 8.93445 4.7317 9.16201 4.86659C8.93445 5.00149 8.74379 5.19219 8.60889 5.41971C8.474 5.19219 8.28333 5.00149 8.05578 4.86659C8.28333 4.7317 8.474 4.541 8.60889 4.31348Z" fill="currentColor"/>
<path d="M5.83045 14.415L5.59083 14.3504C5.23695 14.2552 4.95789 13.9762 4.86263 13.6223L4.7981 13.3826C4.76266 13.2512 4.64295 13.1594 4.50683 13.1594C4.50675 13.1594 4.50672 13.1594 4.50664 13.1594C4.37049 13.1595 4.25077 13.2514 4.21552 13.3827L4.15099 13.6223C4.05573 13.9762 3.7767 14.2552 3.42283 14.3504L3.18325 14.415C3.05177 14.4503 2.95996 14.5701 2.95996 14.7063C2.95996 14.8424 3.05177 14.9622 3.18321 14.9976L3.42283 15.0621C3.7767 15.1574 4.05573 15.4364 4.15099 15.7903L4.21548 16.0297C4.25077 16.1612 4.37053 16.253 4.50664 16.2531H4.50683C4.64291 16.2531 4.7627 16.1614 4.79814 16.0298L4.86263 15.7903C4.95789 15.4364 5.23695 15.1574 5.59083 15.0621L5.83041 14.9976C5.96189 14.9622 6.0537 14.8424 6.0537 14.7063C6.05366 14.5702 5.96189 14.4503 5.83045 14.415ZM4.50679 15.2594C4.37186 15.0319 4.18119 14.8412 3.95368 14.7063C4.18119 14.5714 4.3719 14.3807 4.50679 14.1532C4.64168 14.3807 4.83235 14.5714 5.05991 14.7063C4.83239 14.8412 4.64172 15.0319 4.50679 15.2594Z" fill="currentColor"/>
</g>
<defs>
<clipPath id="clip0_12_2959">
<rect width="19" height="19" fill="white"/>
</clipPath>
</defs>
</svg>
