<svg width="20" height="22" viewBox="0 0 20 22" fill="currentColor" xmlns="http://www.w3.org/2000/svg">
<path d="M15.9344 11.1453C16.2016 10.9391 16.375 10.6156 16.375 10.2547C16.375 10.025 16.3047 9.80937 16.1828 9.63125C16.7453 9.30781 17.125 8.69844 17.125 8.00469C17.125 7.31094 16.7453 6.70625 16.1828 6.37812C16.3047 6.2 16.375 5.98438 16.375 5.75469C16.375 5.26719 16.0609 4.85 15.625 4.69531V4.25C15.625 3.98281 15.8453 3.64531 16.0891 3.5375C16.1312 3.51875 17.125 3.05938 17.125 2C17.125 0.964062 16.2859 0.125 15.25 0.125C14.2141 0.125 13.375 0.964062 13.375 2C13.375 2.20625 13.5438 2.375 13.75 2.375C13.9562 2.375 14.125 2.20625 14.125 2C14.125 1.38125 14.6312 0.875 15.25 0.875C15.8688 0.875 16.375 1.38125 16.375 2C16.375 2.56719 15.8031 2.83906 15.7797 2.85312C15.2734 3.07812 14.875 3.69219 14.875 4.25V4.69531C14.4391 4.85 14.125 5.26719 14.125 5.75469C14.125 5.98438 14.1953 6.2 14.3172 6.37812C13.7547 6.70156 13.375 7.31094 13.375 8.00469C13.375 8.69844 13.7547 9.30313 14.3172 9.63125C14.1953 9.80937 14.125 10.025 14.125 10.2547C14.125 10.6156 14.2984 10.9391 14.5656 11.1453C13.5484 12.1859 11.125 14.9656 11.125 17.75C11.125 20.0234 12.9766 21.875 15.25 21.875C17.5234 21.875 19.375 20.0234 19.375 17.75C19.375 14.9656 16.9516 12.1859 15.9344 11.1453ZM15.25 19.2969L13.5953 18.3406V16.4281L15.25 15.4719L16.9047 16.4281V18.3406L15.25 19.2969ZM11.875 17.75C11.875 17.1828 11.9922 16.6109 12.1891 16.0531L12.8453 16.4328V18.3453L12.0438 18.8094C11.9359 18.4719 11.875 18.1203 11.875 17.75ZM13.2203 15.7812L12.4703 15.35C13.1313 13.9156 14.2 12.6406 14.875 11.9141V14.8297L13.2203 15.7812ZM15.625 10.2547C15.625 10.4469 15.4844 10.6016 15.2969 10.625C15.2641 10.6203 15.2312 10.6203 15.1984 10.625C15.0156 10.6016 14.8703 10.4422 14.8703 10.2547C14.8703 10.0484 15.0391 9.87969 15.2453 9.87969C15.4516 9.87969 15.625 10.0484 15.625 10.2547ZM15.625 14.8297V11.9141C16.3 12.6406 17.3641 13.9156 18.0297 15.35L17.2797 15.7812L15.625 14.8297ZM17.6547 16.4328L18.3109 16.0531C18.5031 16.6109 18.625 17.1828 18.625 17.75C18.625 18.1203 18.5641 18.4719 18.4562 18.8047L17.6547 18.3406V16.4328ZM15.25 5.37969C15.4563 5.37969 15.625 5.54844 15.625 5.75469C15.625 5.96094 15.4563 6.12969 15.25 6.12969C15.0438 6.12969 14.875 5.96094 14.875 5.75469C14.875 5.54844 15.0438 5.37969 15.25 5.37969ZM15.25 6.87969C15.8688 6.87969 16.375 7.38594 16.375 8.00469C16.375 8.62344 15.8688 9.12969 15.25 9.12969C14.6312 9.12969 14.125 8.62344 14.125 8.00469C14.125 7.38594 14.6312 6.87969 15.25 6.87969ZM12.3578 19.4891L13.2203 18.9922L14.875 19.9484V21.1063C13.8063 20.9844 12.8875 20.3656 12.3578 19.4891ZM15.625 21.1016V19.9437L17.2797 18.9875L18.1422 19.4844C17.6125 20.3656 16.6937 20.9844 15.625 21.1016Z" fill="currentColor"/>
<path d="M5.43438 11.1453C5.70156 10.9391 5.875 10.6156 5.875 10.2547C5.875 10.025 5.80469 9.80937 5.68281 9.63125C6.24531 9.30781 6.625 8.69844 6.625 8.00469C6.625 7.31094 6.24531 6.70625 5.68281 6.37812C5.80469 6.2 5.875 5.98438 5.875 5.75469C5.875 5.26719 5.56094 4.85 5.125 4.69531V4.25C5.125 3.98281 5.34531 3.64531 5.58906 3.5375C5.63125 3.51875 6.625 3.05938 6.625 2C6.625 0.964062 5.78594 0.125 4.75 0.125C3.71406 0.125 2.875 0.964062 2.875 2C2.875 2.20625 3.04375 2.375 3.25 2.375C3.45625 2.375 3.625 2.20625 3.625 2C3.625 1.38125 4.13125 0.875 4.75 0.875C5.36875 0.875 5.875 1.38125 5.875 2C5.875 2.56719 5.30313 2.83906 5.27969 2.85312C4.77344 3.07812 4.375 3.69219 4.375 4.25V4.69531C3.93906 4.85 3.625 5.26719 3.625 5.75469C3.625 5.98438 3.69531 6.2 3.81719 6.37812C3.25469 6.70156 2.875 7.31094 2.875 8.00469C2.875 8.69844 3.25469 9.30313 3.81719 9.63125C3.69531 9.80937 3.625 10.025 3.625 10.2547C3.625 10.6156 3.79844 10.9391 4.06562 11.1453C3.04844 12.1859 0.625 14.9656 0.625 17.75C0.625 20.0234 2.47656 21.875 4.75 21.875C7.02344 21.875 8.875 20.0234 8.875 17.75C8.875 14.9656 6.45156 12.1859 5.43438 11.1453ZM4.75 19.2969L3.09531 18.3406V16.4281L4.75 15.4719L6.40469 16.4281V18.3406L4.75 19.2969ZM1.375 17.75C1.375 17.1828 1.49219 16.6109 1.68906 16.0531L2.34531 16.4328V18.3453L1.54375 18.8094C1.43594 18.4719 1.375 18.1203 1.375 17.75ZM2.72031 15.7812L1.97031 15.35C2.63125 13.9156 3.7 12.6406 4.375 11.9141V14.8297L2.72031 15.7812ZM5.125 10.2547C5.125 10.4469 4.98438 10.6016 4.79688 10.625C4.76406 10.6203 4.73125 10.6203 4.69844 10.625C4.51562 10.6016 4.37031 10.4422 4.37031 10.2547C4.37031 10.0484 4.53906 9.87969 4.74531 9.87969C4.95156 9.87969 5.125 10.0484 5.125 10.2547ZM5.125 14.8297V11.9141C5.8 12.6406 6.86406 13.9156 7.52969 15.35L6.77969 15.7812L5.125 14.8297ZM7.15469 16.4328L7.81094 16.0531C8.00313 16.6109 8.125 17.1828 8.125 17.75C8.125 18.1203 8.06406 18.4719 7.95625 18.8047L7.15469 18.3406V16.4328ZM4.75 5.37969C4.95625 5.37969 5.125 5.54844 5.125 5.75469C5.125 5.96094 4.95625 6.12969 4.75 6.12969C4.54375 6.12969 4.375 5.96094 4.375 5.75469C4.375 5.54844 4.54375 5.37969 4.75 5.37969ZM4.75 6.87969C5.36875 6.87969 5.875 7.38594 5.875 8.00469C5.875 8.62344 5.36875 9.12969 4.75 9.12969C4.13125 9.12969 3.625 8.62344 3.625 8.00469C3.625 7.38594 4.13125 6.87969 4.75 6.87969ZM1.85781 19.4891L2.72031 18.9922L4.375 19.9484V21.1063C3.30625 20.9844 2.3875 20.3656 1.85781 19.4891ZM5.125 21.1016V19.9437L6.77969 18.9875L7.64219 19.4844C7.1125 20.3656 6.19375 20.9844 5.125 21.1016Z" fill="currentColor"/>
</svg>
