<svg width="24" height="24" viewBox="0 0 24 24" fill="none" xmlns="http://www.w3.org/2000/svg">
<path d="M17.9344 12.1453C18.2016 11.9391 18.375 11.6156 18.375 11.2547C18.375 11.025 18.3047 10.8094 18.1828 10.6313C18.7453 10.3078 19.125 9.69844 19.125 9.00469C19.125 8.31094 18.7453 7.70625 18.1828 7.37812C18.3047 7.2 18.375 6.98438 18.375 6.75469C18.375 6.26719 18.0609 5.85 17.625 5.69531V5.25C17.625 4.98281 17.8453 4.64531 18.0891 4.5375C18.1312 4.51875 19.125 4.05938 19.125 3C19.125 1.96406 18.2859 1.125 17.25 1.125C16.2141 1.125 15.375 1.96406 15.375 3C15.375 3.20625 15.5438 3.375 15.75 3.375C15.9562 3.375 16.125 3.20625 16.125 3C16.125 2.38125 16.6312 1.875 17.25 1.875C17.8688 1.875 18.375 2.38125 18.375 3C18.375 3.56719 17.8031 3.83906 17.7797 3.85312C17.2734 4.07812 16.875 4.69219 16.875 5.25V5.69531C16.4391 5.85 16.125 6.26719 16.125 6.75469C16.125 6.98438 16.1953 7.2 16.3172 7.37812C15.7547 7.70156 15.375 8.31094 15.375 9.00469C15.375 9.69844 15.7547 10.3031 16.3172 10.6313C16.1953 10.8094 16.125 11.025 16.125 11.2547C16.125 11.6156 16.2984 11.9391 16.5656 12.1453C15.5484 13.1859 13.125 15.9656 13.125 18.75C13.125 21.0234 14.9766 22.875 17.25 22.875C19.5234 22.875 21.375 21.0234 21.375 18.75C21.375 15.9656 18.9516 13.1859 17.9344 12.1453ZM17.25 20.2969L15.5953 19.3406V17.4281L17.25 16.4719L18.9047 17.4281V19.3406L17.25 20.2969ZM13.875 18.75C13.875 18.1828 13.9922 17.6109 14.1891 17.0531L14.8453 17.4328V19.3453L14.0438 19.8094C13.9359 19.4719 13.875 19.1203 13.875 18.75ZM15.2203 16.7812L14.4703 16.35C15.1313 14.9156 16.2 13.6406 16.875 12.9141V15.8297L15.2203 16.7812ZM17.625 11.2547C17.625 11.4469 17.4844 11.6016 17.2969 11.625C17.2641 11.6203 17.2312 11.6203 17.1984 11.625C17.0156 11.6016 16.8703 11.4422 16.8703 11.2547C16.8703 11.0484 17.0391 10.8797 17.2453 10.8797C17.4516 10.8797 17.625 11.0484 17.625 11.2547ZM17.625 15.8297V12.9141C18.3 13.6406 19.3641 14.9156 20.0297 16.35L19.2797 16.7812L17.625 15.8297ZM19.6547 17.4328L20.3109 17.0531C20.5031 17.6109 20.625 18.1828 20.625 18.75C20.625 19.1203 20.5641 19.4719 20.4562 19.8047L19.6547 19.3406V17.4328ZM17.25 6.37969C17.4563 6.37969 17.625 6.54844 17.625 6.75469C17.625 6.96094 17.4563 7.12969 17.25 7.12969C17.0438 7.12969 16.875 6.96094 16.875 6.75469C16.875 6.54844 17.0438 6.37969 17.25 6.37969ZM17.25 7.87969C17.8688 7.87969 18.375 8.38594 18.375 9.00469C18.375 9.62344 17.8688 10.1297 17.25 10.1297C16.6312 10.1297 16.125 9.62344 16.125 9.00469C16.125 8.38594 16.6312 7.87969 17.25 7.87969ZM14.3578 20.4891L15.2203 19.9922L16.875 20.9484V22.1063C15.8063 21.9844 14.8875 21.3656 14.3578 20.4891ZM17.625 22.1016V20.9437L19.2797 19.9875L20.1422 20.4844C19.6125 21.3656 18.6937 21.9844 17.625 22.1016Z" fill="#121212"/>
<path d="M7.43438 12.1453C7.70156 11.9391 7.875 11.6156 7.875 11.2547C7.875 11.025 7.80469 10.8094 7.68281 10.6313C8.24531 10.3078 8.625 9.69844 8.625 9.00469C8.625 8.31094 8.24531 7.70625 7.68281 7.37812C7.80469 7.2 7.875 6.98438 7.875 6.75469C7.875 6.26719 7.56094 5.85 7.125 5.69531V5.25C7.125 4.98281 7.34531 4.64531 7.58906 4.5375C7.63125 4.51875 8.625 4.05938 8.625 3C8.625 1.96406 7.78594 1.125 6.75 1.125C5.71406 1.125 4.875 1.96406 4.875 3C4.875 3.20625 5.04375 3.375 5.25 3.375C5.45625 3.375 5.625 3.20625 5.625 3C5.625 2.38125 6.13125 1.875 6.75 1.875C7.36875 1.875 7.875 2.38125 7.875 3C7.875 3.56719 7.30313 3.83906 7.27969 3.85312C6.77344 4.07812 6.375 4.69219 6.375 5.25V5.69531C5.93906 5.85 5.625 6.26719 5.625 6.75469C5.625 6.98438 5.69531 7.2 5.81719 7.37812C5.25469 7.70156 4.875 8.31094 4.875 9.00469C4.875 9.69844 5.25469 10.3031 5.81719 10.6313C5.69531 10.8094 5.625 11.025 5.625 11.2547C5.625 11.6156 5.79844 11.9391 6.06562 12.1453C5.04844 13.1859 2.625 15.9656 2.625 18.75C2.625 21.0234 4.47656 22.875 6.75 22.875C9.02344 22.875 10.875 21.0234 10.875 18.75C10.875 15.9656 8.45156 13.1859 7.43438 12.1453ZM6.75 20.2969L5.09531 19.3406V17.4281L6.75 16.4719L8.40469 17.4281V19.3406L6.75 20.2969ZM3.375 18.75C3.375 18.1828 3.49219 17.6109 3.68906 17.0531L4.34531 17.4328V19.3453L3.54375 19.8094C3.43594 19.4719 3.375 19.1203 3.375 18.75ZM4.72031 16.7812L3.97031 16.35C4.63125 14.9156 5.7 13.6406 6.375 12.9141V15.8297L4.72031 16.7812ZM7.125 11.2547C7.125 11.4469 6.98438 11.6016 6.79688 11.625C6.76406 11.6203 6.73125 11.6203 6.69844 11.625C6.51562 11.6016 6.37031 11.4422 6.37031 11.2547C6.37031 11.0484 6.53906 10.8797 6.74531 10.8797C6.95156 10.8797 7.125 11.0484 7.125 11.2547ZM7.125 15.8297V12.9141C7.8 13.6406 8.86406 14.9156 9.52969 16.35L8.77969 16.7812L7.125 15.8297ZM9.15469 17.4328L9.81094 17.0531C10.0031 17.6109 10.125 18.1828 10.125 18.75C10.125 19.1203 10.0641 19.4719 9.95625 19.8047L9.15469 19.3406V17.4328ZM6.75 6.37969C6.95625 6.37969 7.125 6.54844 7.125 6.75469C7.125 6.96094 6.95625 7.12969 6.75 7.12969C6.54375 7.12969 6.375 6.96094 6.375 6.75469C6.375 6.54844 6.54375 6.37969 6.75 6.37969ZM6.75 7.87969C7.36875 7.87969 7.875 8.38594 7.875 9.00469C7.875 9.62344 7.36875 10.1297 6.75 10.1297C6.13125 10.1297 5.625 9.62344 5.625 9.00469C5.625 8.38594 6.13125 7.87969 6.75 7.87969ZM3.85781 20.4891L4.72031 19.9922L6.375 20.9484V22.1063C5.30625 21.9844 4.3875 21.3656 3.85781 20.4891ZM7.125 22.1016V20.9437L8.77969 19.9875L9.64219 20.4844C9.1125 21.3656 8.19375 21.9844 7.125 22.1016Z" fill="#121212"/>
</svg>
