<svg width="24" height="24" viewBox="0 0 24 24" fill="none" xmlns="http://www.w3.org/2000/svg">
<g clip-path="url(#clip0_198_2132)">
<mask id="mask0_198_2132" style="mask-type:luminance" maskUnits="userSpaceOnUse" x="0" y="0" width="24" height="24">
<path d="M12 24C18.6274 24 24 18.6274 24 12C24 5.37258 18.6274 0 12 0C5.37258 0 0 5.37258 0 12C0 18.6274 5.37258 24 12 24Z" fill="white"/>
</mask>
<g mask="url(#mask0_198_2132)">
<path d="M-6.03613 0H30.0359V24.048H-6.03613V0Z" fill="#F89939"/>
</g>
<mask id="mask1_198_2132" style="mask-type:luminance" maskUnits="userSpaceOnUse" x="0" y="0" width="24" height="24">
<path d="M12 24C18.6274 24 24 18.6274 24 12C24 5.37258 18.6274 0 12 0C5.37258 0 0 5.37258 0 12C0 18.6274 5.37258 24 12 24Z" fill="white"/>
</mask>
<g mask="url(#mask1_198_2132)">
<path d="M-6.03613 8.016H30.0359V16.032H-6.03613V8.016Z" fill="white"/>
</g>
<mask id="mask2_198_2132" style="mask-type:luminance" maskUnits="userSpaceOnUse" x="0" y="0" width="24" height="24">
<path d="M12 24C18.6274 24 24 18.6274 24 12C24 5.37258 18.6274 0 12 0C5.37258 0 0 5.37258 0 12C0 18.6274 5.37258 24 12 24Z" fill="white"/>
</mask>
<g mask="url(#mask2_198_2132)">
<path d="M-6.03613 16.032H30.0359V24.048H-6.03613V16.032Z" fill="#07933D"/>
</g>
<mask id="mask3_198_2132" style="mask-type:luminance" maskUnits="userSpaceOnUse" x="0" y="0" width="24" height="24">
<path d="M12 24C18.6274 24 24 18.6274 24 12C24 5.37258 18.6274 0 12 0C5.37258 0 0 5.37258 0 12C0 18.6274 5.37258 24 12 24Z" fill="white"/>
</mask>
<g mask="url(#mask3_198_2132)">
<path d="M11.9999 15.2304C13.7707 15.2304 15.2063 13.7948 15.2063 12.024C15.2063 10.2532 13.7707 8.8176 11.9999 8.8176C10.229 8.8176 8.79346 10.2532 8.79346 12.024C8.79346 13.7948 10.229 15.2304 11.9999 15.2304Z" fill="#2A2C7A"/>
</g>
<mask id="mask4_198_2132" style="mask-type:luminance" maskUnits="userSpaceOnUse" x="0" y="0" width="24" height="24">
<path d="M12 24C18.6274 24 24 18.6274 24 12C24 5.37258 18.6274 0 12 0C5.37258 0 0 5.37258 0 12C0 18.6274 5.37258 24 12 24Z" fill="white"/>
</mask>
<g mask="url(#mask4_198_2132)">
<path d="M14.1373 10.2076C14.0882 10.1499 14.0373 10.0937 13.9837 10.0402L12.8615 11.2985L12.416 11.6485C12.4359 11.6706 12.4543 11.694 12.4705 11.7191L12.9238 11.3796L14.4293 10.6213C14.3913 10.5556 14.3509 10.4915 14.3078 10.4293C14.2465 10.4738 14.1608 10.4619 14.1144 10.4015C14.0682 10.3412 14.0788 10.2554 14.1373 10.2076Z" fill="white"/>
<path d="M11.6519 9.3815C11.5764 9.39139 11.5074 9.33921 11.4954 9.2645C11.3446 9.29189 11.198 9.33091 11.0566 9.38138C11.084 9.45228 11.0504 9.53237 10.9798 9.56153C10.9093 9.59073 10.8288 9.55802 10.798 9.48849C10.7294 9.52106 10.6626 9.55675 10.5972 9.5946L11.522 11.004L11.7446 11.5247C11.771 11.5112 11.7985 11.4995 11.827 11.4903L11.6164 10.9649L11.2736 9.31402L11.8022 10.9152L11.8825 11.4753C11.9113 11.4692 11.9409 11.4658 11.9711 11.4643L11.9036 10.9017L11.9998 9.2184C11.9233 9.2184 11.8477 9.22234 11.7728 9.22834C11.7804 9.30338 11.7273 9.37149 11.6519 9.3815Z" fill="white"/>
<path d="M13.6223 9.90948C13.5619 9.86304 13.55 9.77733 13.5944 9.71606C13.5323 9.673 13.4681 9.63259 13.4024 9.5946L12.6442 11.1001L12.3047 11.5534C12.3297 11.5696 12.3532 11.588 12.3753 11.6079L12.7253 11.1624L13.9837 10.0402C13.9301 9.98661 13.8739 9.93568 13.8162 9.8866C13.7684 9.94509 13.6826 9.95575 13.6223 9.90948Z" fill="white"/>
<path d="M12.7253 12.8856L12.3753 12.4401C12.3532 12.46 12.3297 12.4784 12.3047 12.4946L12.6442 12.9479L13.4024 14.4534C13.4681 14.4154 13.5322 14.375 13.5944 14.3319C13.55 14.2706 13.5619 14.1849 13.6223 14.1385C13.6826 14.0922 13.7684 14.1029 13.8162 14.1614C13.8739 14.1122 13.9301 14.0614 13.9837 14.0078L12.7253 12.8856Z" fill="white"/>
<path d="M13.1225 12.1202L12.5599 12.0527C12.5584 12.0829 12.555 12.1125 12.5489 12.1412L13.109 12.2215L14.7102 12.7502L13.0593 12.4073L12.5339 12.1968C12.5247 12.2254 12.513 12.2528 12.4995 12.2792L13.0202 12.5018L14.4296 13.4266C14.4674 13.3612 14.5031 13.2944 14.5357 13.2258C14.4662 13.195 14.4335 13.1145 14.4626 13.044C14.4918 12.9735 14.572 12.9397 14.6428 12.9672C14.6933 12.8258 14.7323 12.6792 14.7597 12.5284C14.685 12.5164 14.6328 12.4474 14.6427 12.3719C14.6527 12.2966 14.7208 12.2434 14.7958 12.2511C14.8019 12.1761 14.8058 12.1006 14.8058 12.024L13.1225 12.1202Z" fill="white"/>
<path d="M14.6427 11.6762C14.6328 11.6007 14.685 11.5316 14.7596 11.5196C14.7323 11.3688 14.6932 11.2222 14.6428 11.0808C14.5719 11.1083 14.4918 11.0746 14.4626 11.004C14.4334 10.9335 14.4661 10.853 14.5357 10.8222C14.5031 10.7536 14.4674 10.6868 14.4296 10.6214L13.0202 11.5462L12.4995 11.7689C12.513 11.7952 12.5247 11.8227 12.5339 11.8512L13.0593 11.6407L14.7102 11.2978L13.109 11.8265L12.5489 11.9068C12.555 11.9355 12.5584 11.9652 12.5599 11.9953L13.1225 11.9278L14.8058 12.024C14.8058 11.9475 14.8019 11.8719 14.7958 11.797C14.7208 11.8046 14.6527 11.7515 14.6427 11.6762Z" fill="white"/>
<path d="M12.9238 12.6684L12.4705 12.3289C12.4543 12.354 12.4359 12.3774 12.416 12.3995L12.8615 12.7495L13.9837 14.0078C14.0373 13.9543 14.0882 13.8981 14.1373 13.8404C14.0788 13.7926 14.0682 13.7068 14.1144 13.6465C14.1608 13.5861 14.2466 13.5742 14.3078 13.6186C14.3509 13.5564 14.3913 13.4923 14.4293 13.4266L12.9238 12.6684Z" fill="white"/>
<path d="M12.0286 11.4643C12.0588 11.4658 12.0885 11.4692 12.1172 11.4753L12.1975 10.9151L12.7261 9.31399L12.3833 10.9648L12.1728 11.4902C12.2013 11.4995 12.2287 11.5111 12.2551 11.5247L12.4777 11.004L13.4026 9.59457C13.3371 9.55673 13.2703 9.52109 13.2017 9.48849C13.1709 9.55802 13.0904 9.59073 13.02 9.56153C12.9494 9.53237 12.9157 9.45228 12.9431 9.38138C12.8018 9.33091 12.6551 9.29189 12.5044 9.2645C12.4924 9.33921 12.4233 9.39137 12.3478 9.3815C12.2725 9.37152 12.2193 9.30341 12.227 9.22834C12.1521 9.22234 12.0765 9.2184 12 9.2184L12.0962 10.9017L12.0286 11.4643Z" fill="white"/>
<path d="M11.2744 11.1624L11.6245 11.6079C11.6465 11.588 11.67 11.5696 11.6951 11.5534L11.3556 11.1001L10.5973 9.59457C10.5316 9.63259 10.4675 9.67301 10.4053 9.71606C10.4498 9.77733 10.4379 9.86306 10.3775 9.90948C10.3171 9.95575 10.2314 9.94509 10.1836 9.88658C10.1259 9.93569 10.0697 9.98657 10.0161 10.0401L11.2744 11.1624Z" fill="white"/>
<path d="M11.0763 11.3796L11.5296 11.7191C11.5458 11.694 11.5642 11.6706 11.5841 11.6485L11.1386 11.2985L10.0164 10.0402C9.96279 10.0937 9.91189 10.1499 9.86281 10.2076C9.92132 10.2554 9.93195 10.3412 9.8857 10.4015C9.83929 10.4619 9.75356 10.4738 9.69229 10.4294C9.64923 10.4916 9.60882 10.5557 9.5708 10.6214L11.0763 11.3796Z" fill="white"/>
<path d="M11.9711 12.5837C11.9409 12.5822 11.9113 12.5788 11.8825 12.5727L11.8022 13.1328L11.2736 14.734L11.6164 13.0831L11.827 12.5577C11.7985 12.5485 11.771 12.5368 11.7446 12.5233L11.522 13.044L10.5972 14.4534C10.6626 14.4912 10.7294 14.5269 10.798 14.5595C10.8288 14.49 10.9093 14.4573 10.9798 14.4864C11.0504 14.5157 11.084 14.5958 11.0566 14.6666C11.198 14.7171 11.3446 14.7561 11.4954 14.7835C11.5074 14.7088 11.5764 14.6566 11.6519 14.6665C11.7272 14.6765 11.7804 14.7446 11.7727 14.8196C11.8477 14.8257 11.9232 14.8296 11.9998 14.8296L11.9036 13.1463L11.9711 12.5837Z" fill="white"/>
<path d="M10.5973 14.4534L11.3556 12.9479L11.6951 12.4946C11.67 12.4784 11.6466 12.4601 11.6245 12.4401L11.2744 12.8856L10.0161 14.0078C10.0697 14.0614 10.1259 14.1123 10.1836 14.1614C10.2314 14.1029 10.3171 14.0923 10.3775 14.1385C10.4379 14.1849 10.4498 14.2707 10.4053 14.3319C10.4675 14.375 10.5316 14.4154 10.5973 14.4534Z" fill="white"/>
<path d="M12.3478 14.6665C12.4233 14.6566 12.4923 14.7088 12.5044 14.7835C12.6551 14.7561 12.8018 14.717 12.9431 14.6666C12.9157 14.5958 12.9494 14.5157 13.02 14.4864C13.0904 14.4573 13.1709 14.49 13.2017 14.5595C13.2703 14.5269 13.3372 14.4912 13.4026 14.4534L12.4778 13.044L12.2551 12.5233C12.2288 12.5368 12.2014 12.5485 12.1727 12.5578L12.3833 13.0832L12.7262 14.734L12.1975 13.1329L12.1172 12.5727C12.0885 12.5788 12.0588 12.5822 12.0287 12.5837L12.0961 13.1463L12 14.8296C12.0765 14.8296 12.1521 14.8257 12.227 14.8196C12.2194 14.7446 12.2725 14.6765 12.3478 14.6665Z" fill="white"/>
<path d="M9.46443 13.2258C9.49702 13.2944 9.53266 13.3612 9.57051 13.4266L10.9799 12.5018L11.5006 12.2791C11.4871 12.2528 11.4754 12.2254 11.4662 12.1968L10.9408 12.4073L9.28993 12.7502L10.8911 12.2215L11.4512 12.1412C11.4451 12.1125 11.4417 12.0828 11.4402 12.0527L10.8776 12.1201L9.19434 12.024C9.19434 12.1005 9.19827 12.1761 9.20427 12.251C9.27932 12.2434 9.34746 12.2965 9.35744 12.3718C9.36733 12.4473 9.31515 12.5164 9.24044 12.5284C9.26782 12.6791 9.30685 12.8258 9.35732 12.9671C9.42822 12.9397 9.5083 12.9734 9.53746 13.044C9.56667 13.1145 9.53394 13.195 9.46443 13.2258Z" fill="white"/>
<path d="M11.5841 12.3995C11.5641 12.3774 11.5458 12.354 11.5296 12.3289L11.0763 12.6684L9.5708 13.4267C9.60879 13.4923 9.64921 13.5565 9.69226 13.6186C9.75354 13.5742 9.83926 13.5861 9.88568 13.6465C9.93195 13.7068 9.9213 13.7926 9.86278 13.8404C9.91189 13.8981 9.96279 13.9543 10.0163 14.0079L11.1386 12.7495L11.5841 12.3995Z" fill="white"/>
<path d="M11.4403 11.9953C11.4418 11.9652 11.4452 11.9355 11.4513 11.9068L10.8911 11.8265L9.28995 11.2978L10.9408 11.6407L11.4662 11.8513C11.4754 11.8227 11.4871 11.7953 11.5006 11.7689L10.98 11.5462L9.57054 10.6214C9.53269 10.6868 9.49702 10.7537 9.46443 10.8223C9.53396 10.853 9.5667 10.9335 9.53746 11.004C9.5083 11.0746 9.42822 11.1083 9.35732 11.0809C9.30685 11.2222 9.26782 11.3689 9.24044 11.5196C9.31515 11.5316 9.3673 11.6007 9.35744 11.6762C9.34746 11.7515 9.27934 11.8047 9.20427 11.797C9.19827 11.872 9.19434 11.9475 9.19434 12.024L10.8776 11.9279L11.4403 11.9953Z" fill="white"/>
</g>
</g>
<defs>
<clipPath id="clip0_198_2132">
<rect width="24" height="24" fill="white"/>
</clipPath>
</defs>
</svg>
