<svg width="163" height="306" viewBox="0 0 163 306" fill="none" xmlns="http://www.w3.org/2000/svg">
<path d="M60.4676 211.76C60.4483 211.15 60.4078 210.542 60.416 209.932C60.434 208.554 60.3842 207.168 60.5257 205.801C60.8784 202.411 62.1795 199.449 64.575 196.954C66.8645 194.571 69.3914 192.549 72.458 191.285C75.198 190.155 78.0776 189.591 81.0358 189.723C90.0872 190.125 97.7579 193.577 103.813 200.374C106.251 203.109 107.916 206.262 108.28 209.998C108.567 212.946 107.631 215.43 105.531 217.495C105.266 217.756 104.993 218.011 104.728 218.274C104.708 218.293 104.728 218.35 104.726 218.258C106.742 218.046 108.763 217.692 110.791 217.651C114.079 217.585 117.295 218.17 120.387 219.322C125.76 221.323 129.679 225.05 132.576 229.878C134.245 232.662 135.375 235.71 135.602 238.973C135.895 243.179 134.391 246.693 131.008 249.289C129.327 250.581 127.367 251.131 125.244 251.01C124.243 250.952 123.244 250.832 122.246 250.721C120.426 250.517 118.662 250.667 116.963 251.418C116.238 251.74 115.479 251.991 114.729 252.254C112.774 252.941 110.801 252.996 108.81 252.414C108.467 252.314 108.116 252.242 107.678 252.135C108.387 253.358 109.166 254.407 109.642 255.579C111.302 259.67 111.525 263.804 109.493 267.849C107.589 271.639 105.891 275.515 104.782 279.607C103.797 283.235 101.576 285.722 98.2502 287.251C95.6659 288.44 92.9228 288.344 90.4608 287.098C85.348 284.512 80.9605 281.02 78.0317 275.942C76.6257 273.504 75.4079 270.992 74.686 268.258C74.6025 267.941 74.4646 267.638 74.2537 267.058C74.0917 267.607 73.9916 267.894 73.9217 268.187C73.0532 271.876 71.3488 275.119 68.3923 277.517C66.9501 278.686 65.1884 279.46 63.5744 280.417C62.2465 281.204 60.8041 281.852 59.6163 282.814C54.8193 286.699 47.3349 285.691 43.3274 280.719C41.1925 278.07 39.9736 275.049 39.2236 271.801C38.9617 270.669 38.8587 269.49 38.7759 268.326C38.3392 262.18 41.0434 257.318 45.1183 253.042C45.8375 252.287 46.6538 251.623 47.4233 250.915C47.6631 250.694 47.8973 250.466 48.285 250.099C47.6919 250.124 47.2951 250.13 46.8995 250.16C41.8592 250.535 37.0456 249.711 32.552 247.349C28.1007 245.011 24.8453 241.551 23.4508 236.663C22.2434 232.43 22.6735 225.915 27.9076 222.26C30.3331 220.567 32.2764 218.367 33.6228 215.691C35.4047 212.146 38.4594 210.338 42.2 209.595C43.9508 209.248 45.7627 208.964 47.5359 209.015C52.1623 209.149 56.1266 210.994 59.4812 214.168C59.8075 214.477 60.1332 214.787 60.6756 215.006C60.4537 214.147 60.2758 213.274 60.0006 212.433C58.9211 209.131 57.7651 205.852 56.7239 202.539C55.5964 198.947 54.5652 195.324 53.4929 191.714C53.0634 190.27 52.618 188.832 52.2137 187.38C51.0706 183.272 49.9137 179.166 48.8203 175.044C47.2001 168.942 45.9469 162.763 44.9591 156.524C43.1099 144.843 43.3751 133.199 45.3032 121.553C46.8178 112.405 49.188 103.476 51.8078 94.593C56.0322 80.2677 58.9895 65.6764 60.4475 50.8014C61.1215 43.9292 60.5685 37.1127 59.3162 30.3335C57.6993 21.5832 56.0752 12.8334 54.5827 4.0624C53.4167 -2.78653 53.0463 -9.72149 52.7275 -16.655C52.4627 -22.4186 52.1155 -28.1809 51.0492 -33.8605C50.4718 -36.9374 49.7705 -40.0012 48.9247 -43.0146C47.8289 -46.9203 46.5303 -50.7693 45.3318 -54.6471C45.2115 -55.0365 44.8798 -55.4745 45.4619 -55.9426C45.6003 -55.7578 45.7589 -55.626 45.8163 -55.4596C48.0656 -48.9291 50.1339 -42.3435 51.4787 -35.5585C52.6433 -29.6817 53.1092 -23.722 53.3843 -17.7484C53.7302 -10.2724 54.1559 -2.80209 55.3613 4.59432C56.1807 9.62415 57.1078 14.6371 58.0125 19.653C59.1769 26.1056 60.6729 32.5046 61.2197 39.0584C61.6594 44.3316 61.45 49.5962 60.7768 54.8347C58.9375 69.1439 56.076 83.2407 51.8523 97.0476C48.5876 107.721 46.1202 118.565 44.9454 129.678C43.9156 139.428 44.2761 149.142 46.0534 158.781C46.9775 163.792 48.0334 168.781 49.1646 173.75C49.8976 176.968 50.8326 180.142 51.7485 183.316C53.2923 188.661 54.8794 193.994 56.4743 199.325C57.6735 203.333 58.9113 207.331 60.1353 211.331C60.1828 211.485 60.2651 211.63 60.3308 211.778C60.3753 211.772 60.421 211.766 60.4676 211.76ZM73.7142 233.187C72.8178 232.009 71.9347 230.9 71.107 229.751C67.5628 224.83 63.9667 219.948 59.7872 215.539C58.7309 214.425 57.5426 213.381 56.2554 212.551C50.9231 209.112 45.2718 208.84 39.4617 211.195C37.5689 211.962 36.1173 213.251 35.5183 215.306C35.2838 216.109 35.0614 216.917 34.834 217.722C34.3449 219.453 33.9238 221.206 33.3514 222.909C32.3938 225.759 30.8139 228.145 28.1615 229.764C27.255 230.317 26.4232 231.108 25.7854 231.961C24.4009 233.813 23.6992 235.833 24.703 238.175C26.3076 241.92 29.0286 244.616 32.5284 246.535C37.0997 249.043 42.0376 249.89 47.2123 249.443C48.6451 249.319 49.9838 248.965 51.2173 248.149C54.3227 246.096 57.7144 244.781 61.3918 244.076C63.4717 243.677 65.5076 242.949 67.4905 242.181C69.2252 241.509 70.7381 240.496 71.301 238.489C71.6336 237.302 72.3961 236.336 73.3841 235.752C73.5015 234.828 73.6033 234.043 73.7142 233.187ZM74.0566 232.404C77.6221 229.121 79.2515 228.601 83.6905 229.223C86.3221 227.773 88.8365 228.08 91.2957 229.716C91.5567 229.038 91.716 228.379 92.0434 227.816C93.6561 225.044 96.0135 222.997 98.6472 221.247C100.524 220.001 102.46 218.843 104.32 217.572C105.627 216.679 106.561 215.435 107.072 213.922C108.164 210.686 107.743 207.642 105.695 204.909C104.977 203.952 104.062 203.119 103.139 202.346C101.078 200.616 98.6673 200.086 96.0749 200.732C94.2952 201.175 92.5594 201.798 90.8179 202.381C89.3771 202.864 87.9106 203.182 86.3904 203.119C83.2712 202.989 80.2452 202.395 77.3595 201.167C76.4733 200.79 75.5848 200.418 74.6894 200.063C72.3592 199.138 69.9682 198.749 67.4434 198.993C64.5293 199.275 62.6133 200.941 61.8663 203.533C60.2626 209.092 60.7858 214.469 64.279 219.305C66.9943 223.065 69.745 226.798 72.4957 230.532C72.9611 231.165 73.5009 231.742 74.0566 232.404ZM76.6457 250.83C76.2936 252.068 75.9988 253.109 75.7014 254.15C74.9728 256.696 74.5663 259.294 74.5037 261.94C74.401 266.327 75.8278 270.286 77.7885 274.144C80.5786 279.636 85.0342 283.365 90.2848 286.252C92.5721 287.509 95.147 287.783 97.5727 286.79C100.572 285.562 102.882 283.514 103.839 280.22C105.161 275.668 106.927 271.29 109.103 267.075C111.072 263.264 110.684 255.897 106.321 252.005C104.847 250.689 103.324 249.452 101.518 248.627C99.9588 247.914 98.3801 247.242 96.7956 246.589C95.1814 245.925 93.5484 245.306 91.9683 244.685C91.5714 247.989 89.2816 250.113 86.1229 251.388C82.9795 252.654 79.8001 252.964 76.6457 250.83ZM91.9293 243.256C92.5527 243.682 92.9639 244.043 93.4379 244.273C94.7169 244.893 96.0029 245.504 97.3203 246.033C100.196 247.19 103.064 248.35 105.58 250.216C105.914 250.463 106.295 250.652 106.671 250.834C108.441 251.692 109.929 251.479 111.408 250.161C112.281 249.383 113.101 248.537 114.031 247.836C114.649 247.369 115.388 246.903 116.128 246.788C118.666 246.392 121.208 246.292 123.567 247.649C124.146 247.983 124.746 248.309 125.376 248.514C126.403 248.847 127.457 249.113 128.513 249.338C129.236 249.492 129.907 249.286 130.505 248.812C134.028 246.019 135.525 242.364 134.786 237.963C133.703 231.507 130.31 226.394 125.042 222.589C120.15 219.055 114.534 218.021 108.611 218.365C107.702 218.419 106.777 218.578 105.903 218.839C102.421 219.878 99.2471 221.522 96.4228 223.824C94.9501 225.023 93.6916 226.414 92.7061 228.035C92.0071 229.185 91.9123 230.302 92.695 231.553C93.7536 233.244 94.7797 234.992 95.5245 236.835C96.7747 239.934 95.3993 242.401 91.9293 243.256ZM70.3604 241.444C68.4956 243.049 66.6935 244.735 64.7431 246.228C63.4984 247.18 62.1008 248.009 60.6521 248.599C58.0197 249.67 55.3203 250.595 52.607 251.447C49.5129 252.419 46.8623 254.081 44.4232 256.172C41.1457 258.984 39.3955 262.472 39.4795 266.828C39.4896 267.33 39.4491 267.833 39.4828 268.333C39.7632 272.556 40.9564 276.472 43.5648 279.859C46.1247 283.182 49.5139 284.768 53.7384 284.444C54.9131 284.353 56.0647 284.161 57.0897 283.518C59.9534 281.722 62.7701 279.838 65.8503 278.421C70.0153 276.505 73.5029 270.081 73.5649 265.649C73.629 261.129 74.0621 256.629 75.5123 252.292C75.7339 251.632 75.867 250.942 76.0591 250.194C75.4413 249.751 74.9291 249.328 74.3657 248.99C72.8007 248.052 71.5954 246.8 71.0897 245.026C70.7506 243.845 70.5909 242.61 70.3604 241.444ZM104.26 202.431C104.32 202.367 104.38 202.302 104.44 202.238C103.884 201.573 103.362 200.875 102.765 200.248C97.3508 194.547 90.7104 191.329 82.8961 190.558C75.0256 189.781 68.7837 192.783 63.8954 198.857C63.7908 198.988 63.6878 199.123 63.6089 199.269C63.5505 199.377 63.5322 199.508 63.4138 199.903C66.3805 197.486 69.5488 197.292 72.7949 198.031C74.8645 198.502 76.873 199.264 78.884 199.966C80.0676 200.38 81.2065 200.922 82.3583 201.424C85.3571 202.729 88.3397 202.732 91.3785 201.491C92.8033 200.909 94.3023 200.469 95.8033 200.117C98.5601 199.47 101.123 199.933 103.365 201.764C103.654 202 103.962 202.21 104.26 202.431ZM74.6934 237.728C75.0301 238.982 75.7104 240.007 76.6859 240.855C77.8266 241.847 78.3792 241.883 79.7467 241.225C80.2873 240.964 80.9154 240.866 81.5154 240.757C82.2105 240.632 82.9174 240.569 83.6208 240.493C84.5894 240.388 85.2487 239.849 85.6381 238.997C86.4589 237.202 86.8946 235.31 86.2269 233.398C85.2825 230.693 83.7108 229.648 81.358 229.642C79.998 229.638 78.7014 229.924 77.4734 230.497C75.1644 231.574 73.8736 233.768 74.2317 236.037C74.3231 236.611 74.5365 237.165 74.6934 237.728ZM73.532 236.343C73.0322 236.964 72.6702 237.312 72.4307 237.73C71.3774 239.571 70.993 241.557 71.3561 243.649C71.9505 247.075 75.6519 249.911 79.1211 249.625C79.4901 249.596 79.8605 249.491 80.2145 249.373C81.6394 248.896 82.476 247.969 82.5135 246.864C82.5493 245.801 81.7364 244.812 80.3078 244.298C79.7066 244.082 79.2954 243.767 79.1062 243.144C79.037 242.916 78.8574 242.721 78.7413 242.533C75.4884 241.892 74.448 239.345 73.532 236.343ZM87.268 233.49C87.1796 233.522 87.0913 233.554 87.002 233.586C87.4751 235.569 87.0123 237.404 86.264 239.2C85.8261 240.252 85.075 240.89 83.9551 241.099C83.709 241.145 83.4538 241.175 83.2215 241.261C82.0526 241.696 81.6151 242.933 82.2084 244.029C82.5048 244.578 82.7594 245.15 83.0318 245.711C83.8396 247.376 85.2926 247.94 86.9745 247.202C88.5712 246.501 89.789 245.364 90.4216 243.736C91.8507 240.058 90.8437 236.581 87.9879 233.945C87.7825 233.755 87.5096 233.639 87.268 233.49ZM34.5927 216.126C34.5005 216.097 34.4087 216.07 34.3165 216.042C34.2185 216.173 34.1022 216.295 34.0267 216.439C32.6304 219.083 30.5526 221.115 28.2328 222.937C27.6114 223.426 26.9857 223.929 26.4548 224.512C24.6385 226.505 23.8137 228.886 23.7373 231.558C24.5046 230.701 25.162 229.799 25.9845 229.088C27.3397 227.916 28.8242 226.896 30.2074 225.754C30.8457 225.227 31.4613 224.629 31.9334 223.955C33.5859 221.602 33.8551 218.785 34.5927 216.126ZM67.283 243.021C66.8685 243.171 66.46 243.344 66.0382 243.469C64.5168 243.92 63.0079 244.435 61.4614 244.779C59.0052 245.325 56.5987 245.941 54.3536 247.147C50.7494 249.083 47.4969 251.451 44.7449 254.488C44.5277 254.728 44.3635 255.016 44.1739 255.282C44.6112 255.171 44.9384 254.941 45.2444 254.685C47.57 252.738 50.0997 251.144 52.9831 250.146C55.1973 249.379 57.4196 248.631 59.609 247.799C60.9711 247.281 62.3302 246.712 63.5968 245.999C64.9598 245.232 66.275 244.351 67.283 243.021ZM110.27 251.839C110.406 251.938 110.466 252.016 110.538 252.027C110.783 252.067 111.031 252.094 111.28 252.108C113.041 252.202 114.675 251.67 116.234 250.958C118.485 249.931 120.801 249.767 123.213 250.086C124.282 250.228 125.372 250.244 126.454 250.266C126.834 250.274 127.216 250.131 127.666 250.044C125.925 249.308 124.325 248.627 122.721 247.959C122.259 247.766 121.787 247.594 121.311 247.441C119.535 246.87 117.877 247.07 116.298 248.116C114.338 249.412 112.595 251.057 110.27 251.839ZM86.6518 232.334C90.6683 234.53 92.0896 238.002 91.6614 242.343C93.596 242.572 94.6426 241.667 94.6157 239.937C94.5985 238.771 94.0092 237.85 93.273 237.052C91.4423 235.064 89.4034 233.273 87.8806 230.996C87.2045 229.985 86.0749 229.65 84.6807 229.646C85.402 230.629 86.0057 231.452 86.6518 232.334ZM89.5679 248.159C88.103 248.221 86.5396 248.302 84.975 248.351C83.8763 248.385 82.8952 248.601 81.9235 249.235C81.0857 249.781 80.0229 250.019 79.0282 250.271C78.4962 250.406 77.8998 250.285 77.2815 250.279C79.4854 252.942 87.0404 251.845 89.5679 248.159ZM87.8227 229.055C88.5112 229.994 89.1502 230.847 89.77 231.715C90.52 232.764 91.1611 233.907 92.0148 234.862C93.1761 236.159 94.5522 237.272 95.1887 239.013C95.2492 238.492 95.2344 238.004 95.1007 237.551C94.3773 235.108 92.9143 233.055 91.4851 231.009C90.6232 229.774 89.2991 229.147 87.8227 229.055Z" fill="#C89663"/>
</svg>
