<svg width="24" height="24" viewBox="0 0 24 24" fill="none" xmlns="http://www.w3.org/2000/svg">
<path d="M12.0029 0.000468749C12.0024 0 12.0024 0 12.002 0C11.7415 0 11.53 0.211875 11.53 0.471937C11.53 0.731999 11.7414 0.943873 12.002 0.943873C12.262 0.943873 12.4739 0.732514 12.4739 0.471937C12.4739 0.212343 12.2625 0.000468749 12.0029 0.000468749Z" fill="#121212"/>
<path d="M22.395 12.4415C22.395 11.9265 22.1183 11.4755 21.7061 11.2277C21.8106 10.5433 21.8645 9.85166 21.8646 9.15772C21.8646 9.15753 21.8646 9.15735 21.8646 9.15716C21.8655 7.9934 21.6626 6.87777 21.2615 5.84142C20.8759 4.84424 20.3143 3.93815 19.5928 3.1477C18.8872 2.37422 18.043 1.72486 17.0831 1.21706C16.1256 0.710207 15.0746 0.356301 13.9599 0.165145C13.9335 0.160411 13.9066 0.158067 13.8796 0.158067C13.6493 0.158067 13.454 0.322785 13.4153 0.550269C13.3936 0.674394 13.4219 0.799456 13.495 0.9023C13.5676 1.00519 13.6762 1.0741 13.8003 1.09533C15.8504 1.44736 17.6121 2.37708 18.8952 3.78389C20.2189 5.23785 20.9192 7.09565 20.9207 9.15688C20.9207 9.15702 20.9207 9.15711 20.9207 9.15725C20.9207 9.81317 20.8708 10.441 20.7823 11.0398C20.0946 11.136 19.5636 11.7278 19.5636 12.4416C19.5636 12.6293 19.6004 12.8084 19.6671 12.9724C19.1632 13.224 18.8161 13.7446 18.8161 14.3451C18.8161 14.4739 18.8325 14.599 18.8626 14.7187C18.0815 14.9024 17.4981 15.6046 17.4981 16.4411C17.4981 16.5363 17.5061 16.6296 17.5207 16.7207C16.5501 16.7782 15.7749 17.5722 15.7471 18.5504C15.6137 18.524 15.4761 18.5095 15.3351 18.5095C14.4999 18.5095 13.7762 18.9942 13.4296 19.6968C13.343 19.5626 13.1946 19.4801 13.0337 19.4801H10.9691C10.8074 19.4801 10.6581 19.5635 10.5717 19.6991C10.2255 18.9951 9.50101 18.5094 8.66504 18.5094C8.52404 18.5094 8.38637 18.5236 8.25306 18.55C8.22508 17.572 7.45 16.7781 6.47955 16.7206C6.49408 16.6295 6.5021 16.5362 6.5021 16.441C6.5021 15.6047 5.91879 14.9025 5.1378 14.7187C5.1679 14.5991 5.18407 14.4739 5.18407 14.345C5.18407 13.7445 4.83691 13.2237 4.33291 12.9721C4.39952 12.8081 4.43655 12.6291 4.43655 12.4415C4.43655 11.7289 3.9071 11.1377 3.2209 11.0402C3.13226 10.4412 3.0821 9.81336 3.0821 9.15721C3.0821 9.15711 3.0821 9.1565 3.0821 9.15627C3.08351 7.09485 3.78434 5.23692 5.10808 3.78337C6.39124 2.37656 8.15294 1.44689 10.2034 1.09482C10.3276 1.07358 10.4361 1.00514 10.5088 0.902253C10.5814 0.799362 10.6098 0.6743 10.5885 0.550222C10.5493 0.322738 10.3539 0.15802 10.1241 0.15802C10.0972 0.15802 10.0703 0.160411 10.0434 0.164676C8.92872 0.355785 7.8782 0.709738 6.92022 1.2166C5.96078 1.72439 5.11652 2.37375 4.41054 3.14723C3.68899 3.93717 3.12738 4.84373 2.74137 5.84043C2.34073 6.87679 2.13729 7.99246 2.13823 9.15622C2.13823 9.15631 2.13823 9.15692 2.13823 9.15716C2.13823 9.85058 2.19209 10.5417 2.29648 11.2257C1.88276 11.473 1.60498 11.9254 1.60498 12.4415C1.60498 12.9524 1.87714 13.401 2.28401 13.65C2.17728 13.8588 2.11648 14.0948 2.11648 14.345C2.11648 14.9945 2.52242 15.5506 3.09377 15.7737C3.00949 15.9798 2.96252 16.2049 2.96252 16.441C2.96252 17.3461 3.64568 18.0942 4.52341 18.1979C4.49449 18.329 4.47893 18.465 4.47893 18.6046C4.47893 19.6455 5.32572 20.4923 6.36663 20.4923C6.42761 20.4923 6.48761 20.4884 6.5471 20.4827C6.54358 20.5324 6.54128 20.5825 6.54128 20.6331C6.54128 21.8041 7.49397 22.7568 8.66495 22.7568C9.07858 22.7568 9.46445 22.6373 9.79112 22.4317L10.5603 23.764C10.6446 23.9101 10.8004 24 10.969 24H13.0337C13.2023 24 13.3581 23.9101 13.4424 23.764L14.2108 22.4331C14.5371 22.6377 14.9222 22.7567 15.335 22.7567C16.506 22.7567 17.4587 21.804 17.4587 20.633C17.4587 20.5824 17.4562 20.5323 17.4527 20.4825C17.5123 20.4883 17.5723 20.4923 17.6333 20.4923C18.6742 20.4923 19.521 19.6455 19.521 18.6046C19.521 18.4649 19.505 18.329 19.4759 18.198C20.354 18.0945 21.0374 17.3463 21.0374 16.4409C21.0374 16.2048 20.99 15.9798 20.9056 15.7736C21.4772 15.5506 21.8835 14.9946 21.8835 14.3449C21.8835 14.0947 21.8222 13.8588 21.7153 13.65C22.1226 13.4012 22.395 12.9527 22.395 12.4415ZM2.54885 12.4415C2.54885 12.1813 2.76054 11.9696 3.02079 11.9696C3.28104 11.9696 3.49273 12.1812 3.49273 12.4415C3.49273 12.7017 3.28104 12.9134 3.02079 12.9134C2.76054 12.9134 2.54885 12.7017 2.54885 12.4415ZM3.06035 14.345C3.06035 14.0197 3.32496 13.7551 3.65027 13.7551C3.97559 13.7551 4.24019 14.0197 4.24019 14.345C4.24019 14.6703 3.97559 14.9349 3.65027 14.9349C3.32496 14.9349 3.06035 14.6703 3.06035 14.345ZM4.73233 17.2668C4.27699 17.2668 3.90649 16.8963 3.90649 16.441C3.90649 15.9856 4.27699 15.6151 4.73233 15.6151C5.18768 15.6151 5.55818 15.9856 5.55818 16.441C5.55818 16.8963 5.18768 17.2668 4.73233 17.2668ZM6.36663 19.5484C5.84618 19.5484 5.4228 19.125 5.4228 18.6046C5.4228 18.0842 5.84622 17.6608 6.36663 17.6608C6.88708 17.6608 7.31045 18.0842 7.31045 18.6046C7.31045 19.125 6.88708 19.5484 6.36663 19.5484ZM8.665 21.8128C8.01447 21.8128 7.4852 21.2836 7.4852 20.633C7.4852 19.9825 8.01447 19.4532 8.665 19.4532C9.31553 19.4532 9.84479 19.9825 9.84479 20.633C9.84479 21.2836 9.31553 21.8128 8.665 21.8128ZM12.7612 23.0561H11.2415L10.4816 21.74L11.2415 20.4239H12.7612L13.5211 21.74L12.7612 23.0561ZM15.335 21.8128C14.6845 21.8128 14.1552 21.2836 14.1552 20.633C14.1552 19.9825 14.6845 19.4532 15.335 19.4532C15.9855 19.4532 16.5148 19.9825 16.5148 20.633C16.5148 21.2836 15.9856 21.8128 15.335 21.8128ZM17.6333 19.5484C17.1129 19.5484 16.6895 19.125 16.6895 18.6046C16.6895 18.0842 17.1129 17.6608 17.6333 17.6608C18.1538 17.6608 18.5772 18.0842 18.5772 18.6046C18.5772 19.125 18.1538 19.5484 17.6333 19.5484ZM19.2677 17.2668C18.8123 17.2668 18.4418 16.8963 18.4418 16.441C18.4418 15.9856 18.8123 15.6151 19.2677 15.6151C19.723 15.6151 20.0935 15.9856 20.0935 16.441C20.0935 16.8963 19.7231 17.2668 19.2677 17.2668ZM20.3497 14.9349C20.0244 14.9349 19.7598 14.6703 19.7598 14.345C19.7598 14.0197 20.0244 13.7551 20.3497 13.7551C20.6751 13.7551 20.9397 14.0197 20.9397 14.345C20.9397 14.6703 20.675 14.9349 20.3497 14.9349ZM20.9793 12.9134C20.7191 12.9134 20.5073 12.7017 20.5073 12.4415C20.5073 12.1812 20.719 11.9696 20.9793 11.9696C21.2395 11.9696 21.4512 12.1812 21.4512 12.4415C21.4512 12.7017 21.2395 12.9134 20.9793 12.9134Z" fill="#121212"/>
</svg>
