<svg width="156" height="306" viewBox="0 0 156 306" fill="none" xmlns="http://www.w3.org/2000/svg">
<path d="M69.2048 208.311C71.6701 214.941 74.3196 221.496 75.7632 228.46C75.8957 228.438 76.0286 228.415 76.1611 228.393C76.143 227.94 76.2058 227.466 76.0937 227.036C75.5229 224.855 74.9777 222.662 74.2898 220.515C73.0637 216.689 71.6437 212.933 69.7854 209.359C69.6014 209.005 69.3991 208.66 69.2048 208.311Z" fill="#C89663"/>
<path d="M66.6589 236.016C59.0471 235.78 51.7949 236.996 44.6108 238.77C51.8333 237.578 59.0712 236.536 66.4149 236.476C66.4535 236.475 66.49 236.343 66.6589 236.016Z" fill="#C89663"/>
<path d="M79.927 268.544C78.4235 274.469 76.3627 280.171 73.5505 285.604C73.6476 285.677 73.7446 285.749 73.8426 285.822C74.041 285.633 74.3093 285.481 74.4278 285.252C75.099 283.956 75.8113 282.673 76.3662 281.326C77.9284 277.536 79.2415 273.665 79.8582 269.59C79.9099 269.246 79.9052 268.894 79.927 268.544Z" fill="#C89663"/>
<path d="M78.2039 209.034C78.7884 215.786 79.3409 222.538 78.8973 229.323C78.8965 229.331 78.9657 229.346 79.0818 229.381C79.498 228.892 79.4206 228.244 79.4801 227.671C79.8724 223.88 79.5747 220.093 79.2841 216.313C79.0958 213.87 78.7671 211.438 78.5021 209C78.4022 209.012 78.3026 209.023 78.2039 209.034Z" fill="#C89663"/>
<path d="M137.246 239.758C135.99 239.604 135.066 240.289 134.048 240.443C132.933 240.613 131.829 240.865 130.715 241.045C129.643 241.218 128.563 241.349 127.485 241.49C126.366 241.637 125.247 241.786 124.126 241.907C123.056 242.022 121.983 242.104 120.636 242.226C125.643 242.888 135.455 241.46 137.246 239.758Z" fill="#C89663"/>
<path d="M68.3931 270.651C71.9577 265.595 76.9851 253.558 76.3187 251.262C74.4844 258.167 71.5986 264.347 68.3931 270.651Z" fill="#C89663"/>
<path d="M101.789 260.748C99.7583 256.93 91.8176 248.315 89.7274 247.619C90.3688 248.594 91.3704 249.234 92.1628 250.069C92.996 250.947 93.8649 251.791 94.6911 252.673C95.4895 253.526 96.2584 254.408 97.0342 255.283C97.8369 256.189 98.6364 257.098 99.431 258.011C100.221 258.919 101.003 259.836 101.789 260.748Z" fill="#C89663"/>
<path d="M64.3509 231.671C61.5097 230.226 58.4843 229.437 55.3619 229.101C51.2147 228.655 47.0478 228.471 42.8736 228.634C42.3771 228.654 41.8823 228.712 41.3838 228.816C49.1327 229.023 56.9173 228.906 64.3509 231.671Z" fill="#C89663"/>
<path d="M102.067 281.642C100.548 279.582 99.0114 277.535 97.5175 275.457C96.0053 273.354 94.5351 271.22 93.0922 269.163C93.4853 271.227 100.156 280.967 101.81 281.83C101.895 281.767 101.981 281.705 102.067 281.642Z" fill="#C89663"/>
<path d="M86.8672 199.107C86.6341 199.435 86.5862 199.473 86.5918 199.498C87.2536 202.284 86.7793 205.057 86.4943 207.831C86.2523 210.19 86.0022 212.549 85.8756 214.936C86.1472 213.63 86.4898 212.334 86.6754 211.016C87.0249 208.54 87.3331 206.056 87.559 203.566C87.6522 202.54 87.5307 201.487 87.4217 200.455C87.3783 200.048 87.1043 199.663 86.8672 199.107Z" fill="#C89663"/>
<path d="M30.7915 227.816C31.1614 227.99 31.2096 228.033 31.2358 228.022C34.9078 226.554 38.7828 226.853 42.6058 226.737C44.2091 226.688 45.8155 226.744 47.4341 226.609C45.7018 226.469 43.9711 226.233 42.2366 226.21C39.9025 226.179 37.5626 226.258 35.2321 226.399C34.2026 226.462 33.178 226.751 32.1745 227.024C31.7395 227.143 31.3624 227.481 30.7915 227.816Z" fill="#C89663"/>
<path d="M121.486 274.73C121.517 274.49 121.646 274.203 121.558 274.021C121.324 273.537 121.041 273.061 120.698 272.647C117.971 269.357 114.921 266.406 111.437 263.916C111.34 263.847 111.209 263.829 110.99 263.75C114.702 267.215 118.391 270.558 121.486 274.73Z" fill="#C89663"/>
<path d="M95.2521 207.879C93.2265 214.698 91.532 221.64 87.2803 227.596C88.5281 226.386 89.5301 224.977 90.216 223.418C91.3765 220.783 92.4939 218.114 93.3831 215.38C94.179 212.936 94.6421 210.384 95.2521 207.879Z" fill="#C89663"/>
<path d="M112.16 220.832C106.572 224.884 101.31 229.391 95.5181 233.188C101.615 229.821 106.924 225.385 112.16 220.832Z" fill="#C89663"/>
<path d="M119.166 209.843C118.117 210.335 110.422 218.038 109.155 219.973C109.833 219.375 110.517 218.783 111.189 218.177C111.902 217.536 112.61 216.891 113.308 216.232C114.006 215.575 114.69 214.903 115.377 214.234C116.064 213.566 116.781 212.923 117.423 212.215C118.039 211.536 118.933 211.049 119.166 209.843Z" fill="#C89663"/>
<path d="M105.284 230.921C100.243 233.202 95.2026 235.484 90.0557 237.813C90.3153 237.851 90.5748 237.966 90.7852 237.905C91.5478 237.686 92.3136 237.456 93.042 237.144C97.1238 235.4 101.134 233.513 104.94 231.215C105.068 231.138 105.192 231.053 105.318 230.972C105.307 230.955 105.295 230.937 105.284 230.921Z" fill="#C89663"/>
<path d="M117.869 234.763C114.871 235.645 111.893 236.604 108.869 237.388C105.863 238.167 102.812 238.768 99.9194 239.417C103.103 239.756 113.848 236.55 117.869 234.763Z" fill="#C89663"/>
<path d="M66.2656 211.009C64.5747 207.715 62.5297 204.645 60.2413 201.733C60.1119 201.568 59.8497 201.508 59.6446 201.396C59.5727 201.549 59.4875 201.658 59.5113 201.692C61.6746 204.843 63.8473 207.989 66.019 211.135C66.1011 211.093 66.1835 211.051 66.2656 211.009Z" fill="#C89663"/>
<path d="M44.9617 246.993C48.9127 245.711 52.865 244.429 56.816 243.147C56.809 243.099 56.8021 243.051 56.7952 243.002C55.4363 243.289 54.0683 243.54 52.7215 243.872C51.3445 244.212 49.9753 244.598 48.6237 245.028C47.2806 245.456 45.8503 245.752 44.8186 246.784C44.8658 246.853 44.9139 246.923 44.9617 246.993Z" fill="#C89663"/>
<path d="M82.4359 265.717C82.8322 261.968 81.8513 254.035 80.8214 252.209C80.3712 252.619 80.6733 253.064 80.7325 253.46C81.2119 256.636 81.7218 259.807 82.191 262.985C82.3253 263.888 82.3575 264.807 82.4359 265.717Z" fill="#C89663"/>
<path d="M59.1314 209.761C62.1156 214.014 65.0998 218.267 68.0849 222.521C65.4973 217.99 62.5015 213.746 59.1314 209.761Z" fill="#C89663"/>
<path d="M55.5386 235.304C59.3793 235.329 63.2199 235.354 67.0603 235.381C67.0884 235.335 67.1174 235.291 67.1455 235.246C66.8854 235.133 66.6315 234.942 66.3629 234.919C62.7418 234.621 59.1336 234.753 55.5386 235.304Z" fill="#C89663"/>
<path d="M96.3169 256.647C95.18 254.164 90.2645 248.568 88.7201 248.089C89.5697 248.984 90.4339 249.864 91.2646 250.775C92.1359 251.729 92.9849 252.704 93.8274 253.685C94.6686 254.663 95.4885 255.659 96.3169 256.647Z" fill="#C89663"/>
<path d="M70.5291 253.498C67.45 256.731 64.3706 259.964 61.2915 263.196C64.7729 260.341 68.014 257.26 70.5291 253.498Z" fill="#C89663"/>
<path d="M52.8405 267.857C54.7289 265.913 56.6172 263.968 58.5056 262.023C57.2338 262.635 56.1837 263.539 55.2039 264.513C54.2378 265.472 53.0636 266.29 52.5658 267.618C52.6573 267.697 52.7494 267.777 52.8405 267.857Z" fill="#C89663"/>
<path d="M80.9286 241.887C82.4883 240.501 83.2609 235.901 82.6694 232.544C82.2824 235.683 82.2403 238.757 80.9286 241.887Z" fill="#C89663"/>
<path d="M135.775 241.713C133.056 242.82 130.153 242.755 127.319 243.206C130.178 243.765 134.923 242.987 135.775 241.713Z" fill="#C89663"/>
<path d="M41.4632 224.533C38.5491 223.827 34.2134 224.118 33.2783 225.051C35.9858 224.88 38.6825 224.709 41.4632 224.533Z" fill="#C89663"/>
<path d="M79.9924 229.223C80.7585 227.789 81.0245 222.165 80.486 219.219C80.3225 222.527 80.1604 225.82 79.9924 229.223Z" fill="#C89663"/>
<path d="M72.1683 259.357C73.6178 257.241 74.5153 254.247 75.5538 251.312C75.4703 251.263 75.3865 251.216 75.3031 251.167C75.1734 251.378 75.0051 251.574 74.9202 251.802C74.451 253.054 74.0026 254.313 73.5466 255.57C73.0209 257.016 72.494 258.462 72.1683 259.357Z" fill="#C89663"/>
<path d="M111.413 214.465C113.768 212.988 116.251 210.701 116.922 209.413C116.621 209.503 116.368 209.504 116.232 209.631C115.414 210.4 114.617 211.19 113.826 211.987C113.014 212.805 112.217 213.638 111.413 214.465Z" fill="#C89663"/>
<path d="M90.2824 246.105C92.7095 247.355 95.1365 248.604 97.5635 249.854C95.3971 248.116 92.9825 246.841 90.4445 245.797C90.3908 245.901 90.3364 246.003 90.2824 246.105Z" fill="#C89663"/>
<path d="M88.5615 199.231C88.4036 201.445 88.2459 203.648 88.1016 205.663C89.2326 203.097 89.4988 199.934 88.5615 199.231Z" fill="#C89663"/>
<path d="M98.7826 280.051C97.4361 278.267 96.0896 276.484 94.7422 274.7C95.423 276.579 96.5274 278.194 97.803 279.699C98.0087 279.941 98.3378 280.077 98.6099 280.263C98.6675 280.192 98.7251 280.121 98.7826 280.051Z" fill="#C89663"/>
<path d="M90.8974 242.037C89.7479 244.759 87.2681 244.702 84.8423 244.95C87.2527 245.775 91.097 244.555 90.8974 242.037Z" fill="#C89663"/>
<path d="M74.2331 243.123C75.263 244.437 76.714 244.848 78.1726 245.176C78.7754 245.312 79.4942 245.287 79.9067 244.282C78.7648 244.733 77.7909 244.552 76.8676 244.256C75.9616 243.965 75.1084 243.507 74.2331 243.123Z" fill="#C89663"/>
<path d="M98.0893 236.654C95.4868 237.376 93.0497 238.053 90.5913 238.736C91.8496 239.044 95.9677 237.912 98.0893 236.654Z" fill="#C89663"/>
<path d="M57.8992 202.994C58.8793 204.267 59.8594 205.54 60.9312 206.932C60.3609 204.986 59.0159 203.09 57.8992 202.994Z" fill="#C89663"/>
<path d="M135.936 230.218C134.364 230.784 132.791 231.351 131.22 231.917C133.488 231.822 135.382 231.167 135.936 230.218Z" fill="#C89663"/>
<path d="M93.5281 219.129C94.1341 217.463 94.7397 215.797 95.1987 214.535C94.6547 215.771 93.9367 217.403 93.2188 219.034C93.322 219.067 93.4255 219.098 93.5281 219.129Z" fill="#C89663"/>
<path d="M83.5043 237.872C83.3252 239.145 82.0774 239.969 82.0701 241.315C83.1272 240.421 83.4755 239.215 83.5043 237.872Z" fill="#C89663"/>
<path d="M120.755 276.665C120.548 275.489 119.809 274.689 118.994 273.94C119.329 275.016 119.876 275.954 120.755 276.665Z" fill="#C89663"/>
<path d="M101.558 211.76C101.578 211.15 101.618 210.542 101.61 209.932C101.592 208.554 101.642 207.168 101.5 205.801C101.147 202.411 99.8464 199.449 97.4509 196.954C95.1614 194.571 92.6344 192.549 89.5678 191.285C86.8278 190.155 83.9483 189.591 80.99 189.723C71.9387 190.125 64.268 193.577 58.2124 200.374C55.7747 203.109 54.1099 206.262 53.7463 209.998C53.4594 212.946 54.395 215.43 56.4947 217.495C56.7603 217.756 57.0328 218.011 57.2977 218.274C57.3174 218.293 57.2979 218.35 57.3003 218.258C55.2843 218.046 53.2627 217.692 51.2344 217.651C47.9472 217.585 44.7306 218.17 41.6388 219.322C36.2663 221.323 32.3466 225.05 29.4499 229.878C27.7812 232.662 26.6513 235.71 26.4235 238.973C26.1304 243.179 27.6351 246.693 31.0174 249.289C32.6993 250.581 34.6593 251.131 36.7815 251.01C37.7833 250.952 38.7815 250.832 39.7797 250.721C41.6001 250.517 43.3641 250.667 45.0624 251.418C45.7883 251.74 46.547 251.991 47.2972 252.254C49.2514 252.941 51.2251 252.996 53.2161 252.414C53.5589 252.314 53.9098 252.242 54.3477 252.135C53.6389 253.358 52.8595 254.407 52.3843 255.579C50.7242 259.67 50.501 263.804 52.5329 267.849C54.4372 271.639 56.1346 275.515 57.2441 279.607C58.2284 283.235 60.4502 285.722 63.7757 287.251C66.36 288.44 69.1031 288.344 71.5651 287.098C76.6778 284.512 81.0654 281.02 83.9942 275.942C85.4002 273.504 86.618 270.992 87.3398 268.258C87.4234 267.941 87.5613 267.638 87.7722 267.058C87.9341 267.607 88.0343 267.894 88.1041 268.187C88.9727 271.876 90.6771 275.119 93.6336 277.517C95.0758 278.686 96.8375 279.46 98.4515 280.417C99.7794 281.204 101.222 281.852 102.41 282.814C107.207 286.699 114.691 285.691 118.698 280.719C120.833 278.07 122.052 275.049 122.802 271.801C123.064 270.669 123.167 269.49 123.25 268.326C123.687 262.18 120.982 257.318 116.908 253.042C116.188 252.287 115.372 251.623 114.603 250.915C114.363 250.694 114.129 250.466 113.741 250.099C114.334 250.124 114.731 250.13 115.126 250.16C120.167 250.535 124.98 249.711 129.474 247.349C133.925 245.011 137.181 241.551 138.575 236.663C139.783 232.43 139.352 225.915 134.118 222.26C131.693 220.567 129.75 218.367 128.403 215.691C126.621 212.146 123.566 210.338 119.826 209.595C118.075 209.248 116.263 208.964 114.49 209.015C109.864 209.149 105.899 210.994 102.545 214.168C102.218 214.477 101.893 214.787 101.35 215.006C101.572 214.147 101.75 213.274 102.025 212.433C103.105 209.131 104.261 205.852 105.302 202.539C106.43 198.947 107.461 195.324 108.533 191.714C108.962 190.27 109.408 188.832 109.812 187.38C110.955 183.272 112.112 179.166 113.206 175.044C114.826 168.942 116.079 162.763 117.067 156.524C118.916 144.843 118.651 133.199 116.723 121.553C115.208 112.405 112.838 103.476 110.218 94.593C105.994 80.2677 103.036 65.6764 101.578 50.8014C100.904 43.9292 101.457 37.1127 102.71 30.3335C104.327 21.5832 105.951 12.8334 107.443 4.0624C108.609 -2.78653 108.98 -9.72149 109.298 -16.655C109.563 -22.4186 109.91 -28.1809 110.977 -33.8605C111.554 -36.9374 112.255 -40.0012 113.101 -43.0146C114.197 -46.9203 115.496 -50.7693 116.694 -54.6471C116.814 -55.0365 117.146 -55.4745 116.564 -55.9426C116.426 -55.7578 116.267 -55.626 116.21 -55.4596C113.96 -48.9291 111.892 -42.3435 110.547 -35.5585C109.383 -29.6817 108.917 -23.722 108.642 -17.7484C108.296 -10.2724 107.87 -2.80209 106.665 4.59432C105.845 9.62415 104.918 14.6371 104.013 19.653C102.849 26.1056 101.353 32.5046 100.806 39.0584C100.366 44.3316 100.576 49.5962 101.249 54.8347C103.088 69.1439 105.95 83.2407 110.174 97.0476C113.438 107.721 115.906 118.565 117.081 129.678C118.11 139.428 117.75 149.142 115.973 158.781C115.048 163.792 113.992 168.781 112.861 173.75C112.128 176.968 111.193 180.142 110.277 183.316C108.734 188.661 107.147 193.994 105.552 199.325C104.352 203.333 103.115 207.331 101.891 211.331C101.843 211.485 101.761 211.63 101.695 211.778C101.651 211.772 101.605 211.766 101.558 211.76ZM88.3116 233.187C89.2081 232.009 90.0912 230.9 90.9189 229.751C94.4631 224.83 98.0591 219.948 102.239 215.539C103.295 214.425 104.483 213.381 105.77 212.551C111.103 209.112 116.754 208.84 122.564 211.195C124.457 211.962 125.909 213.251 126.508 215.306C126.742 216.109 126.964 216.917 127.192 217.722C127.681 219.453 128.102 221.206 128.674 222.909C129.632 225.759 131.212 228.145 133.864 229.764C134.771 230.317 135.603 231.108 136.24 231.961C137.625 233.813 138.327 235.833 137.323 238.175C135.718 241.92 132.997 244.616 129.498 246.535C124.926 249.043 119.988 249.89 114.814 249.443C113.381 249.319 112.042 248.965 110.809 248.149C107.703 246.096 104.312 244.781 100.634 244.076C98.5542 243.677 96.5183 242.949 94.5353 242.181C92.8007 241.509 91.2878 240.496 90.7249 238.489C90.3922 237.302 89.6298 236.336 88.6418 235.752C88.5244 234.828 88.4226 234.043 88.3116 233.187ZM87.9693 232.404C84.4037 229.121 82.7744 228.601 78.3354 229.223C75.7037 227.773 73.1894 228.08 70.7301 229.716C70.4692 229.038 70.3098 228.379 69.9825 227.816C68.3698 225.044 66.0124 222.997 63.3787 221.247C61.5017 220.001 59.5657 218.843 57.7061 217.572C56.3988 216.679 55.4647 215.435 54.9539 213.922C53.8621 210.686 54.283 207.642 56.3312 204.909C57.0486 203.952 57.9642 203.119 58.887 202.346C60.9483 200.616 63.3586 200.086 65.9509 200.732C67.7307 201.175 69.4664 201.798 71.2079 202.381C72.6488 202.864 74.1153 203.182 75.6355 203.119C78.7546 202.989 81.7807 202.395 84.6664 201.167C85.5526 200.79 86.4411 200.418 87.3365 200.063C89.6667 199.138 92.0577 198.749 94.5825 198.993C97.4966 199.275 99.4125 200.941 100.16 203.533C101.763 209.092 101.24 214.469 97.7469 219.305C95.0316 223.065 92.2809 226.798 89.5302 230.532C89.0648 231.165 88.525 231.742 87.9693 232.404ZM85.3802 250.83C85.7323 252.068 86.0271 253.109 86.3245 254.15C87.0531 256.696 87.4596 259.294 87.5221 261.94C87.6249 266.327 86.198 270.286 84.2374 274.144C81.4473 279.636 76.9917 283.365 71.7411 286.252C69.4538 287.509 66.8789 287.783 64.4531 286.79C61.4542 285.562 59.1443 283.514 58.1873 280.22C56.8653 275.668 55.0993 271.29 52.9227 267.075C50.9537 263.264 51.3419 255.897 55.7048 252.005C57.1791 250.689 58.7016 249.452 60.5075 248.627C62.067 247.914 63.6457 247.242 65.2303 246.589C66.8445 245.925 68.4774 245.306 70.0576 244.685C70.4545 247.989 72.7442 250.113 75.9029 251.388C79.0464 252.654 82.2258 252.964 85.3802 250.83ZM70.0966 243.256C69.4732 243.682 69.062 244.043 68.5879 244.273C67.3089 244.893 66.023 245.504 64.7056 246.033C61.8301 247.19 58.962 248.35 56.4457 250.216C56.1122 250.463 55.7306 250.652 55.355 250.834C53.5849 251.692 52.0972 251.479 50.6176 250.161C49.745 249.383 48.9248 248.537 47.9944 247.836C47.3765 247.369 46.6375 246.903 45.8982 246.788C43.3598 246.392 40.8178 246.292 38.4588 247.649C37.8801 247.983 37.2803 248.309 36.6494 248.514C35.6227 248.847 34.5694 249.113 33.513 249.338C32.7898 249.492 32.1187 249.286 31.5207 248.812C27.9981 246.019 26.501 242.364 27.2398 237.963C28.3233 231.507 31.7162 226.394 36.9837 222.589C41.8763 219.055 47.4919 218.021 53.4146 218.365C54.3243 218.419 55.2494 218.578 56.123 218.839C59.6044 219.878 62.7787 221.522 65.6031 223.824C67.0758 225.023 68.3343 226.414 69.3198 228.035C70.0188 229.185 70.1135 230.302 69.3309 231.553C68.2722 233.244 67.2462 234.992 66.5013 236.835C65.2512 239.934 66.6266 242.401 70.0966 243.256ZM91.6655 241.444C93.5302 243.049 95.3324 244.735 97.2828 246.228C98.5275 247.18 99.9251 248.009 101.374 248.599C104.006 249.67 106.706 250.595 109.419 251.447C112.513 252.419 115.164 254.081 117.603 256.172C120.88 258.984 122.63 262.472 122.546 266.828C122.536 267.33 122.577 267.833 122.543 268.333C122.263 272.556 121.07 276.472 118.461 279.859C115.901 283.182 112.512 284.768 108.287 284.444C107.113 284.353 105.961 284.161 104.936 283.518C102.073 281.722 99.2558 279.838 96.1756 278.421C92.0106 276.505 88.523 270.081 88.461 265.649C88.3969 261.129 87.9638 256.629 86.5136 252.292C86.292 251.632 86.1588 250.942 85.9668 250.194C86.5846 249.751 87.0968 249.328 87.6602 248.99C89.2252 248.052 90.4305 246.8 90.9362 245.026C91.2753 243.845 91.4349 242.61 91.6655 241.444ZM57.7655 202.431C57.7058 202.367 57.6462 202.302 57.5856 202.238C58.1424 201.573 58.6642 200.875 59.2604 200.248C64.6751 194.547 71.3155 191.329 79.1298 190.558C87.0003 189.781 93.2421 192.783 98.1305 198.857C98.2351 198.988 98.3381 199.123 98.417 199.269C98.4754 199.377 98.4937 199.508 98.6121 199.903C95.6453 197.486 92.477 197.292 89.231 198.031C87.1614 198.502 85.1528 199.264 83.1418 199.966C81.9583 200.38 80.8193 200.922 79.6676 201.424C76.6687 202.729 73.6862 202.732 70.6474 201.491C69.2225 200.909 67.7236 200.469 66.2226 200.117C63.4657 199.47 60.9032 199.933 58.6604 201.764C58.3722 202 58.0641 202.21 57.7655 202.431ZM87.3324 237.728C86.9958 238.982 86.3154 240.007 85.34 240.855C84.1993 241.847 83.6466 241.883 82.2792 241.225C81.7386 240.964 81.1105 240.866 80.5105 240.757C79.8154 240.632 79.1085 240.569 78.4051 240.493C77.4364 240.388 76.7772 239.849 76.3877 238.997C75.567 237.202 75.1313 235.31 75.799 233.398C76.7433 230.693 78.3151 229.648 80.6679 229.642C82.0279 229.638 83.3245 229.924 84.5525 230.497C86.8615 231.574 88.1523 233.768 87.7942 236.037C87.7027 236.611 87.4894 237.165 87.3324 237.728ZM88.4939 236.343C88.9937 236.964 89.3556 237.312 89.5952 237.73C90.6485 239.571 91.0329 241.557 90.6698 243.649C90.0754 247.075 86.374 249.911 82.9048 249.625C82.5358 249.596 82.1653 249.491 81.8114 249.373C80.3865 248.896 79.5498 247.969 79.5124 246.864C79.4766 245.801 80.2895 244.812 81.718 244.298C82.3192 244.082 82.7305 243.767 82.9197 243.144C82.9888 242.916 83.1684 242.721 83.2845 242.533C86.5374 241.892 87.5778 239.345 88.4939 236.343ZM74.7579 233.49C74.8463 233.522 74.9346 233.554 75.0239 233.586C74.5508 235.569 75.0136 237.404 75.7619 239.2C76.1998 240.252 76.9509 240.89 78.0708 241.099C78.3169 241.145 78.572 241.175 78.8044 241.261C79.9733 241.696 80.4108 242.933 79.8174 244.029C79.5211 244.578 79.2664 245.15 78.9941 245.711C78.1863 247.376 76.7333 247.94 75.0513 247.202C73.4547 246.501 72.2369 245.364 71.6043 243.736C70.1752 240.058 71.1822 236.581 74.0379 233.945C74.2433 233.755 74.5163 233.639 74.7579 233.49ZM127.433 216.126C127.525 216.097 127.617 216.07 127.709 216.042C127.807 216.173 127.924 216.295 127.999 216.439C129.395 219.083 131.473 221.115 133.793 222.937C134.414 223.426 135.04 223.929 135.571 224.512C137.387 226.505 138.212 228.886 138.289 231.558C137.521 230.701 136.864 229.799 136.041 229.088C134.686 227.916 133.202 226.896 131.819 225.754C131.18 225.227 130.565 224.629 130.092 223.955C128.44 221.602 128.171 218.785 127.433 216.126ZM94.7429 243.021C95.1574 243.171 95.5658 243.344 95.9876 243.469C97.5091 243.92 99.018 244.435 100.564 244.779C103.021 245.325 105.427 245.941 107.672 247.147C111.276 249.083 114.529 251.451 117.281 254.488C117.498 254.728 117.662 255.016 117.852 255.282C117.415 255.171 117.087 254.941 116.781 254.685C114.456 252.738 111.926 251.144 109.043 250.146C106.829 249.379 104.606 248.631 102.417 247.799C101.055 247.281 99.6957 246.712 98.4291 245.999C97.0661 245.232 95.7509 244.351 94.7429 243.021ZM51.7556 251.839C51.6198 251.938 51.5595 252.016 51.4883 252.027C51.243 252.067 50.9946 252.094 50.7459 252.108C48.9848 252.202 47.3513 251.67 45.7917 250.958C43.5412 249.931 41.2246 249.767 38.8134 250.086C37.7434 250.228 36.6535 250.244 35.5717 250.266C35.1922 250.274 34.8101 250.131 34.3597 250.044C36.1009 249.308 37.701 248.627 39.3049 247.959C39.7666 247.766 40.2388 247.594 40.715 247.441C42.4912 246.87 44.1485 247.07 45.7281 248.116C47.6883 249.412 49.4308 251.057 51.7556 251.839ZM75.3741 232.334C71.3576 234.53 69.9363 238.002 70.3645 242.343C68.4299 242.572 67.3833 241.667 67.4101 239.937C67.4274 238.771 68.0167 237.85 68.7529 237.052C70.5836 235.064 72.6225 233.273 74.1452 230.996C74.8214 229.985 75.951 229.65 77.3452 229.646C76.6239 230.629 76.0202 231.452 75.3741 232.334ZM72.458 248.159C73.9229 248.221 75.4863 248.302 77.0508 248.351C78.1495 248.385 79.1307 248.601 80.1024 249.235C80.9402 249.781 82.003 250.019 82.9977 250.271C83.5296 250.406 84.1261 250.285 84.7444 250.279C82.5405 252.942 74.9855 251.845 72.458 248.159ZM74.2031 229.055C73.5147 229.994 72.8757 230.847 72.2559 231.715C71.5059 232.764 70.8648 233.907 70.0111 234.862C68.8498 236.159 67.4737 237.272 66.8372 239.013C66.7767 238.492 66.7915 238.004 66.9252 237.551C67.6486 235.108 69.1116 233.055 70.5408 231.009C71.4027 229.774 72.7268 229.147 74.2031 229.055Z" fill="#C89663"/>
</svg>
