<svg width="19" height="19" viewBox="0 0 19 19" fill="none" xmlns="http://www.w3.org/2000/svg">
<g clip-path="url(#clip0_12_2899)">
<path d="M12.0815 19C9.67118 19 8.55497 18.625 7.56385 18.0952C4.60293 18.0877 2.5562 17.6126 2.08201 16.8209C1.94263 16.5883 1.93599 16.3288 2.06324 16.0903C2.06342 16.09 2.06361 16.0897 2.06379 16.0894C2.49757 15.2789 3.06938 14.418 3.71742 13.5998C3.81283 13.4793 3.98792 13.459 4.10841 13.5544C4.2289 13.6498 4.24924 13.8249 4.15379 13.9454C3.64413 14.5889 3.24962 15.174 2.95531 15.6547C3.45506 15.626 4.07115 15.7544 4.61863 15.9601C5.74007 16.3816 6.46608 16.8119 7.10662 17.1915C7.3308 17.3244 7.54348 17.4505 7.75908 17.5679C7.76472 17.5707 7.77025 17.5737 7.77567 17.5769C8.73446 18.0966 9.75557 18.4434 12.0815 18.4434C12.6234 18.4434 13.1488 18.4236 13.6433 18.3845C13.7966 18.3729 13.9306 18.4868 13.9427 18.64C13.9548 18.7933 13.8403 18.9273 13.6871 18.9394C13.1781 18.9796 12.6379 19 12.0815 19ZM2.55449 16.3521C2.51857 16.4193 2.51994 16.4688 2.55958 16.5349C2.81348 16.9588 4.1607 17.411 6.5613 17.516C6.00151 17.188 5.3505 16.8298 4.42284 16.4812C3.36403 16.0833 2.644 16.1855 2.55464 16.3519C2.55457 16.352 2.55453 16.3521 2.55449 16.3521ZM14.9328 18.786C14.7999 18.786 14.6823 18.6905 14.6589 18.555C14.6327 18.4036 14.7343 18.2596 14.8857 18.2334C15.5279 18.1224 15.8584 18.0034 15.9958 17.9342C14.8856 13.8482 12.8945 9.64436 11.2304 7.88188C11.0554 7.75207 10.8836 7.62702 10.754 7.53328C10.5761 7.76065 10.2733 8.10506 9.90805 8.34861C10.1462 8.46502 10.2993 8.54488 10.4278 8.66099C10.6982 8.90521 10.789 9.2573 10.6649 9.57997C10.5403 9.90394 10.2323 10.1133 9.88048 10.1133C9.8715 10.1133 9.43357 10.1053 8.92806 9.96027C7.59921 10.5625 6.23697 11.6019 4.98226 12.9722C4.87847 13.0855 4.70242 13.0933 4.58905 12.9895C4.47568 12.8857 4.46792 12.7096 4.57176 12.5962C5.73595 11.3249 6.99526 10.3245 8.24525 9.67389C7.93728 9.49143 7.66542 9.23333 7.51731 8.86832C7.37177 8.50959 7.43549 7.83435 7.74023 7.34658C7.49167 6.78237 7.49171 6.18183 7.49171 5.88176V4.20438C6.4502 3.92372 6.28747 3.26099 6.28747 2.87475C6.28747 2.46124 6.53058 2.06113 6.90679 1.85539C7.21521 1.6867 7.56214 1.66758 7.88911 1.79502C8.17344 1.44894 8.6261 1.20598 9.29634 1.20598C9.35122 1.20598 9.40488 1.20732 9.45736 1.20999C9.60642 0.455889 10.3218 0 11.3986 0C12.2408 0 12.8948 0.33866 13.1055 0.883797C13.1599 1.0247 13.2027 1.25415 13.2568 1.54475C13.3191 1.87922 13.408 2.35663 13.535 2.71618C13.5413 2.73006 13.5465 2.74442 13.5505 2.75901C13.6201 2.94619 13.7007 3.09659 13.7941 3.17014C13.8026 3.17679 13.811 3.18335 13.8194 3.18988C13.8229 3.19241 13.8263 3.19501 13.8295 3.19768C14.2434 3.51541 14.6809 3.71105 15.1045 3.90046C15.3589 4.0142 15.5992 4.12166 15.8228 4.25043C15.9688 4.33449 16.3565 4.55766 17.0007 7.39861C17.0992 7.83308 16.9249 8.25134 16.5459 8.49011C16.2017 8.70701 15.7789 8.71488 15.4612 8.51887C15.4523 9.4577 15.4219 10.4075 15.3707 11.3501C15.3623 11.5035 15.2309 11.6201 15.0777 11.6129C14.9242 11.6045 14.8065 11.4733 14.8149 11.3198C14.8741 10.2308 14.9051 9.1321 14.9073 8.05225C14.6569 7.82106 14.4066 7.57376 14.2353 7.40146C14.1346 7.52266 14.0235 7.65555 13.9012 7.80195C13.8079 7.91357 13.7076 8.03351 13.5998 8.16273C13.3226 8.49512 13.0174 8.67602 12.6928 8.70044C12.6579 8.70296 12.6231 8.70374 12.5886 8.70271C13.168 9.54505 13.7618 10.6034 14.3437 11.8356C15.2338 13.7203 16.0245 15.8833 16.5701 17.9262C16.5953 18.0207 16.5786 18.1205 16.523 18.2074C16.376 18.437 15.857 18.6304 14.9805 18.7819C14.9645 18.7847 14.9485 18.786 14.9328 18.786ZM9.19466 9.45859C9.49053 9.53299 9.7569 9.5567 9.88044 9.5567C10.0257 9.5567 10.1125 9.46549 10.1454 9.38014C10.1693 9.31802 10.1893 9.1957 10.0547 9.07417C9.97028 8.99791 9.83186 8.93059 9.5806 8.80836C9.53317 8.78531 9.48203 8.76041 9.42678 8.73332C9.2963 8.91913 9.21859 9.1619 9.19466 9.45859ZM8.08932 7.89587C7.98059 8.2005 7.97869 8.52495 8.0331 8.6591C8.14483 8.93453 8.38352 9.12894 8.65587 9.26462C8.69709 8.96191 8.7876 8.69955 8.92669 8.47938C8.83113 8.42913 8.72801 8.37392 8.6166 8.31291C8.40278 8.19579 8.22959 8.05329 8.08932 7.89587ZM10.6924 6.86787C10.7498 6.86787 10.8064 6.88564 10.8539 6.91949C10.8986 6.9514 11.9542 7.7048 12.296 8.00798C12.4092 8.10829 12.5284 8.15423 12.6511 8.14536C12.8175 8.13285 12.9978 8.01555 13.1724 7.80618C13.2803 7.67682 13.3807 7.55669 13.4741 7.44496C14.4932 6.22577 14.6234 6.05933 14.6234 5.78272C14.6234 5.68493 14.5442 5.63294 14.497 5.61064C14.402 5.56574 14.2889 5.56945 14.2282 5.61936C14.0777 5.74312 13.1251 6.61189 12.7708 6.93619C12.6725 7.02618 12.5244 7.03386 12.4173 6.95459C12.4173 6.95459 12.0545 6.68607 11.6828 6.41072C11.6795 6.40842 11.6763 6.40608 11.6732 6.40363C11.4581 6.24428 11.2409 6.08341 11.0905 5.97171C10.7574 5.72457 10.3386 5.6777 9.68246 5.6777C9.52875 5.6777 9.40414 5.55312 9.40414 5.39938C9.40414 5.24563 9.52875 5.12106 9.68246 5.12106C10.3066 5.12106 10.7259 4.89636 10.7259 4.56193V3.24388C10.6216 3.39024 10.4945 3.5258 10.3453 3.64882C9.76755 4.12549 8.87867 4.37152 8.04835 4.3019V5.88184C8.04835 6.33832 8.08672 6.82211 8.2926 7.21981C8.30236 7.23444 8.3106 7.24984 8.31735 7.26572C8.44223 7.48849 8.62314 7.68179 8.88405 7.8247C9.0352 7.90749 9.17083 7.97941 9.29277 8.04253C9.78948 7.87736 10.2981 7.23841 10.4598 6.99311C10.5014 6.93003 10.567 6.88642 10.6413 6.87258C10.6582 6.86943 10.6753 6.86787 10.6924 6.86787ZM15.3758 7.72632C15.4978 7.83691 15.6161 7.93944 15.7199 8.02156C15.8808 8.14888 16.1017 8.11211 16.2492 8.01915C16.3334 7.96612 16.5217 7.81208 16.4586 7.52541C16.4129 7.40113 16.0942 7.08206 15.7682 6.77524C15.7058 6.9311 15.6147 7.07412 15.4985 7.19454C15.3838 7.3134 15.2505 7.40625 15.1022 7.47164C15.1905 7.55565 15.2809 7.64026 15.3696 7.72072C15.3717 7.72257 15.3738 7.72443 15.3758 7.72632ZM16.4578 7.52166C16.4579 7.52185 16.4579 7.52203 16.4579 7.52226C16.4579 7.52211 16.4579 7.52196 16.4579 7.52181C16.4579 7.52177 16.4579 7.5217 16.4578 7.52166ZM14.5901 6.96851C14.6072 6.98573 14.6253 7.00399 14.6444 7.0231C14.8258 7.00235 14.9811 6.92906 15.0979 6.80801C15.2151 6.68655 15.2879 6.52331 15.3052 6.34856C15.2916 6.33617 15.2783 6.32414 15.2654 6.31238C15.2144 6.26596 15.1638 6.22005 15.1143 6.17489C15.0382 6.37587 14.8839 6.60165 14.5901 6.96851ZM15.7802 6.02838C15.9283 6.16361 16.062 6.28685 16.1817 6.39966C15.7998 4.98616 15.5761 4.75876 15.5415 4.73078C15.3433 4.617 15.1169 4.51577 14.8773 4.40859C14.5337 4.25496 14.1548 4.08552 13.7796 3.84279C13.2697 5.0173 12.6219 5.7911 12.2727 6.155C12.3831 6.23668 12.484 6.31145 12.5643 6.37086C12.9207 6.04534 13.7226 5.31455 13.8746 5.18949C14.1038 5.00097 14.4414 4.96876 14.7348 5.10729C14.84 5.15702 14.9293 5.22396 14.9996 5.30371C15.1635 5.46755 15.3951 5.67799 15.6398 5.90047C15.6839 5.94047 15.7266 5.97947 15.7684 6.01754C15.7724 6.02107 15.7763 6.02467 15.7802 6.02838ZM10.9561 5.27747C11.1191 5.33581 11.2751 5.41563 11.4222 5.52473C11.4982 5.58118 11.5912 5.65016 11.6924 5.72512V4.45116C11.5568 4.50886 11.4194 4.55354 11.2824 4.58026C11.2775 4.83001 11.1722 5.07961 10.9561 5.27747ZM12.249 4.14274V5.3308C12.5794 4.91328 12.9915 4.29548 13.3253 3.48802C13.2832 3.43952 13.244 3.38545 13.2074 3.3263C12.9786 3.56157 12.6374 3.88138 12.249 4.14274ZM10.0084 1.2943C10.879 1.52924 11.2825 2.19483 11.2825 2.82183V4.00893C11.8984 3.83273 12.6182 3.15304 12.9666 2.76962C12.8641 2.44388 12.7863 2.05905 12.7095 1.64669C12.6645 1.40529 12.6221 1.17729 12.5862 1.08445C12.4643 0.768758 11.987 0.556641 11.3986 0.556641C10.9214 0.556641 10.1518 0.658432 10.0084 1.2943ZM8.04831 3.74322C8.75183 3.81688 9.50857 3.61742 9.99106 3.21946C10.3159 2.95146 10.4917 2.61903 10.5144 2.2302C10.3447 2.02116 10.0697 1.85706 9.67916 1.79249C9.66832 1.79142 9.65775 1.78975 9.64732 1.78748C9.53903 1.7713 9.42214 1.7627 9.29634 1.7627C8.13834 1.7627 8.04835 2.70004 8.04835 2.9873L8.04831 3.74322ZM7.46002 2.26991C7.33641 2.26991 7.23732 2.30913 7.17387 2.34383C6.97355 2.45338 6.84408 2.66178 6.84408 2.87483C6.84408 3.01391 6.84411 3.4007 7.49167 3.62329V2.9873C7.49167 2.75749 7.52867 2.51676 7.61109 2.28935C7.55761 2.27558 7.50707 2.26991 7.46002 2.26991Z" fill="currentColor"/>
</g>
<defs>
<clipPath id="clip0_12_2899">
<rect width="19" height="19" fill="white"/>
</clipPath>
</defs>
</svg>
